<?xml version="1.0" encoding="utf-8"?>
<!-- Generator: Adobe Illustrator 28.4.1, SVG Export Plug-In . SVG Version: 6.00 Build 0)  -->
<svg version="1.1" id="Layer_1" xmlns="http://www.w3.org/2000/svg" xmlns:xlink="http://www.w3.org/1999/xlink" x="0px" y="0px"
	 width="400px" height="245px" viewBox="0 0 400 245" style="enable-background:new 0 0 400 245;" xml:space="preserve">
<style type="text/css">
	.Drop_x0020_Shadow{fill:none;}
	.Round_x0020_Corners_x0020_2_x0020_pt{fill:#FFFFFF;stroke:#231F20;stroke-miterlimit:10;}
	.Live_x0020_Reflect_x0020_X{fill:none;}
	.Bevel_x0020_Soft{fill:url(#SVGID_1_);}
	.Dusk{fill:#FFFFFF;}
	.Foliage_GS{fill:#FFDD00;}
	.Pompadour_GS{fill-rule:evenodd;clip-rule:evenodd;fill:#44ADE2;}
	.st0{fill-rule:evenodd;clip-rule:evenodd;fill:#08314F;}
	.st1{fill-rule:evenodd;clip-rule:evenodd;fill:#D40E19;}
	.st2{fill-rule:evenodd;clip-rule:evenodd;fill:#FFFFFF;}
	.st3{fill-rule:evenodd;clip-rule:evenodd;fill:#A2C6D1;}
	.st4{fill-rule:evenodd;clip-rule:evenodd;fill:#6996B7;}
	.st5{fill-rule:evenodd;clip-rule:evenodd;fill:#F7C17B;}
	.st6{fill-rule:evenodd;clip-rule:evenodd;fill:#3E54A1;}
	.st7{fill-rule:evenodd;clip-rule:evenodd;fill:#FDE8AF;}
	.st8{fill-rule:evenodd;clip-rule:evenodd;fill:#D3E5E9;}
	.st9{fill-rule:evenodd;clip-rule:evenodd;fill:#FCE6AF;}
	.st10{fill-rule:evenodd;clip-rule:evenodd;fill:#75C3B0;}
	.st11{fill-rule:evenodd;clip-rule:evenodd;fill:#579792;}
	.st12{fill-rule:evenodd;clip-rule:evenodd;fill:#A6D6C9;}
	.st13{fill-rule:evenodd;clip-rule:evenodd;fill:#B64721;}
	.st14{fill-rule:evenodd;clip-rule:evenodd;fill:#A0121C;}
	.st15{fill-rule:evenodd;clip-rule:evenodd;fill:#8C3622;}
	.st16{fill-rule:evenodd;clip-rule:evenodd;fill:#294585;}
	.st17{fill-rule:evenodd;clip-rule:evenodd;fill:#FDF3D5;}
	.st18{fill:#04335F;}
</style>
<linearGradient id="SVGID_1_" gradientUnits="userSpaceOnUse" x1="0" y1="0" x2="0.7071" y2="0.7071">
	<stop  offset="0" style="stop-color:#DEDFE3"/>
	<stop  offset="0.1783" style="stop-color:#DADBDF"/>
	<stop  offset="0.3611" style="stop-color:#CECFD3"/>
	<stop  offset="0.546" style="stop-color:#B9BCBF"/>
	<stop  offset="0.7324" style="stop-color:#9CA0A2"/>
	<stop  offset="0.9181" style="stop-color:#787D7E"/>
	<stop  offset="1" style="stop-color:#656B6C"/>
</linearGradient>
<g>
	<path class="st0" d="M62,153.5c1.9,1.3,3.7,3.1,4.5,5.2c0.4,0.9,0.5,2,0.4,3c-0.1,0.7-0.4,1.3-0.8,1.9c-0.6,0.9-1.5,1.5-2.6,1.7
		c-1.9,0.5-3.9,0.3-5.7-0.4c-2.9-1.3-5.2-3.8-6.9-6.4c-0.1-0.1-0.1-0.2-0.2-0.4c-0.3-0.5-0.7-1-1-1.4c-0.7-1.1-1.5-2.6-1.3-3.9
		c0-0.2,0.1-0.5,0.2-0.7c0,0,0-0.1,0-0.1c0-0.8,0.4-1.6,1.1-2.1c0.1-0.1,0.2-0.3,0.3-0.4c-0.1-0.5-0.2-1-0.3-1.6
		c-0.2-0.7-0.3-1.5,0.2-2.1c0.1-0.1,0.2-0.2,0.4-0.3c-0.1-0.4-0.2-0.7-0.3-1.1c-0.2-0.8-0.4-1.7-0.7-2.5c-0.2-0.6-0.3-1.1-0.5-1.7
		l-0.5,0.8l-1.1-1.5l-0.5,0.6l-0.9-1.2l-0.9,0.6l-0.4-1.2c-0.1-0.2-0.1-0.5-0.2-0.7l0,0l0-0.1c-0.2-0.4-0.3-0.8-0.5-1.2
		c-0.1-0.1-0.1-0.3-0.2-0.4c-0.1-0.2-0.2-0.5-0.3-0.7c-0.3-0.6-0.6-1.2-0.9-1.8c-0.4,0-0.7,0-1.1,0c-0.2,0-0.4,0-0.5,0
		c-1.1,0-2.1-0.1-3.2-0.3l0.1,0.6l0.1,0.3c0.1,0.2,0.1,0.4,0.2,0.7l0.3,0.9l0,0c0.1,0.4,0.2,0.7,0.2,1.1l0.1,0.4l-1.7-0.7l-0.3,0.9
		l1.1,4.4c0.1,0.1,0.3,0.2,0.4,0.3c1.2,1,1.8,2.5,2,4c0.2,0.8,0.2,1.7,0.3,2.5c0,0.7-0.1,2-0.1,2.7l-24.2-0.1c0-0.1,0.1-0.6,0.1-0.6
		c0.2-0.6,0.3-1.3,0.5-1.9c0,0,0-0.1,0-0.1c0,0,0-0.1,0-0.1c0,0,0-0.1,0-0.1c0,0,0-0.1,0-0.1c0,0,0-0.1,0-0.1c0,0,0-0.1,0-0.1
		c0,0,0-0.1,0.1-0.1c0,0,0-0.1,0.1-0.1c0,0,0-0.1,0.1-0.1c0,0,0-0.1,0.1-0.1c0,0,0-0.1,0.1-0.1c0,0,0-0.1,0.1-0.1c0,0,0-0.1,0.1-0.1
		c0,0,0-0.1,0.1-0.1c0,0,0-0.1,0.1-0.1c0,0,0-0.1,0.1-0.1c0,0,0-0.1,0.1-0.1c0,0,0.1-0.1,0.1-0.1c0,0,0.1-0.1,0.1-0.1
		c0,0,0.1-0.1,0.1-0.1c0,0,0.1-0.1,0.1-0.1c0,0,0.1-0.1,0.1-0.1c0,0,0.1-0.1,0.1-0.1c0,0,0.1-0.1,0.1-0.1c0,0,0.1-0.1,0.1-0.1
		c0,0,0.1-0.1,0.1-0.1c0,0,0.1-0.1,0.1-0.1c0,0,0.1,0,0.1-0.1c0,0,0.1,0,0.1-0.1c0,0,0.1,0,0.1-0.1c0,0,0.1,0,0.1-0.1
		c0,0,0.1,0,0.1-0.1c0,0,0.1,0,0.1-0.1c0,0,0.1,0,0.1-0.1c0,0,0.1,0,0.1-0.1c0,0,0.1,0,0.1-0.1c0,0,0.1,0,0.1-0.1c0,0,0.1,0,0.1-0.1
		c0,0,0.1,0,0.1-0.1c0,0,0.1,0,0.1-0.1c0,0,0.1,0,0.1-0.1c0,0,0.1,0,0.1-0.1s0.1,0,0.1-0.1c0,0,0.1,0,0.1-0.1c0,0,0.1,0,0.1-0.1
		c0,0,0.1,0,0.1,0c0,0,0.1,0,0.1,0c0,0,0.1,0,0.1,0c0,0,0.1,0,0.1,0c0,0,0.1,0,0.1,0c0,0,0.1,0,0.1,0c0,0,0.1,0,0.1,0
		c0,0,0.1,0,0.1,0c0,0,0.1,0,0.1,0c0,0,0.1,0,0.1,0c0,0,0.1,0,0.1,0c0,0,0.1,0,0.1,0c0,0,0.1,0,0.1,0c0,0,0.1,0,0.1,0
		c0,0,0.1,0,0.1,0c0,0,0.1,0,0.1,0c0,0,0.1,0,0.1,0c0,0,0.1,0,0.1,0c0,0,0.1,0,0.1,0c0,0,0,0,0.1,0l0.1,0l0,0l0,0l0,0l0,0l0,0l0,0
		l0.1,0c0.7-0.1,1.4-0.2,2.1-0.2c0.8,0,1.5,0,2.3,0c0.9,0,1.8,0.1,2.7,0.1c0.8,0,1.7,0.1,2.5,0.2c0,0,0-0.1,0-0.1
		c0.2-0.6,0.4-1.2,0.8-1.7c-0.5-1.7-1-3.3-1.5-5l-0.6,0.9l-0.9-1.3l-0.5,0.5l-0.8-1l-0.8,0.5L28,136c0-0.1-0.1-0.2-0.1-0.3l0,0
		l0-0.1c-0.1-0.4-0.2-0.8-0.4-1.2c-0.1-0.3-0.2-0.6-0.3-0.9c-0.2-0.5-0.3-1-0.5-1.5c-0.4-1.4-0.9-2.8-1.3-4.1
		c-0.3-0.1-0.5-0.3-0.6-0.6c-0.1-0.4-0.2-0.8-0.3-1.3c-0.1-0.7-0.3-1.4-0.4-2.2c-0.1-0.4-0.2-0.7-0.3-1.1c-0.2-0.4-0.4-0.8-0.6-1.2
		c-0.3-0.7-0.6-1.3-0.9-2c-0.1-0.3-0.2-0.6-0.3-0.9c-0.1-0.2-0.1-0.4-0.2-0.7c-0.3-1-0.4-2.1-0.4-3.2c-0.1-1.5,0-3.1,0.2-4.6
		c0-0.1,0-0.1,0-0.2c0-0.2,0-0.4,0.1-0.6c-1.2,0.5-2.4,0.9-3.7,1.3c-0.4,0.1-0.8,0-1.1-0.4c-0.1-0.1-0.1-0.2-0.2-0.4
		c-0.1-0.2-0.2-0.4-0.2-0.5c-0.1-0.2-0.2-0.4-0.2-0.6c-1.1,0-2.2-0.1-3.2-0.5c-0.5-0.1-1-0.3-1.5-0.6c-1.9-0.9-3.4-2.4-4.7-4
		c-3.2-4.2-4.7-9.8-5-15c-0.3-0.7-0.5-1.5-0.5-2.3c-0.9-1.4-1.8-3.6-1.2-5.3c0.3-0.9,1-1.6,2-1.7c0.3,0,0.5,0,0.7,0.1
		c0.4-0.7,1.2-1.3,2.1-1.2c0.1,0,0.3,0,0.4,0.1c-0.1-1.2-0.1-2.4-0.1-3.6c0.1-1.2,0.3-2.8,0.8-4c0.3-0.7,0.7-1.3,1.2-1.9
		c0.1-0.1,0.3-0.3,0.4-0.4c0.4-0.3,0.9-0.6,1.4-0.4c1.1,0.3,1.2,1.7,1.2,2.7c0.3-0.5,0.6-1,1-1.4c0.3-0.4,0.7-0.7,1.1-0.9
		c0.5-0.2,1-0.3,1.5-0.1c1.3,0.6,1,2.3,0.8,3.4L13,78.6c0.3,0.1,0.6,0.2,0.9,0.3c1.2,0.4,1.9,1.7,2.2,2.8c0.2,0.8,0.3,1.8,0.1,2.6
		c-0.2,0.8-0.5,1.7-0.9,2.5c0,0,0,0.1,0.1,0.1c0.8,2.1,1.5,4.2,2.1,6.3c0.2,0.9,0.5,1.7,0.7,2.6c0,0.1,0.1,0.1,0.1,0.2l0,0l0,0
		c0,0.2,0.1,0.4,0.1,0.6l0.3-0.1c0.9-0.3,1.8-0.6,2.7-0.8c1.1-0.3,2.2-0.6,3.3-0.8c0.4-0.1,0.8-0.2,1.3-0.3c1.3-0.3,2.5-0.6,3.8-0.9
		c0,0,0.1-0.1,0.1-0.1c0.5-0.4,1.1-0.7,1.8-0.8c0.4-1.4,1.3-2.1,2.7-2.3c0.2,0,0.4-0.1,0.6,0c0.4-1.1,0.9-2.2,1.4-3.2
		c0.6-1.2,1.2-2.4,1.9-3.5c1.1-1.9,2.3-3.8,3.6-5.5c-0.8-0.1-1.5-0.3-2.3-0.5c-1,0.3-2,0.6-3,0.9c-2.5,0.7-4.9,1.4-7.5,1
		c-0.1,0-0.1,0-0.2,0c-0.5,0.1-1,0.1-1.5,0.2c-1.2,0.1-3.3,0.2-3.7-1.2c-0.1-0.2-0.1-0.4-0.1-0.6c0.1-0.8,0.7-1.6,1.3-2.1
		c0.8-0.8,1.7-1.5,2.6-2.2c0.2-0.2,0.4-0.3,0.6-0.5c0.8-0.6,1.5-1.3,2.3-1.9c0.4-0.4,0.9-0.8,1.3-1.2c0.3-0.3,0.6-0.6,0.7-1
		c0-0.4-0.1-0.8-0.1-1.3c0-1.8,0.4-3.5,1.3-5.1c-0.1-0.1-0.3-0.3-0.3-0.5c-0.2-0.6,0.1-1.3,0.5-1.8c0.2-0.3,0.7-0.5,1-0.7
		c0.2-0.1,0.5-0.3,0.7-0.5c0.2-0.2,0.3-0.4,0.5-0.6c0.1-0.2,0.2-0.3,0.4-0.5c0.2-0.2,0.5-0.4,0.8-0.6c1.1-0.6,2.8-0.5,4-0.3
		c0.7-0.1,1.4-0.2,2.1-0.2c3.8,0,7.4,2.1,9.3,5.4c0.3,0.2,0.6,0.4,0.8,0.7c0.7,0.6,1.4,1.2,1.5,2.1c0.1,0.5-0.1,1-0.1,1.6
		c0,0.1,0.1,0.2,0.1,0.3c0.1,0.3,0.3,0.5,0.4,0.8c0.2,0.4,0.3,0.9,0.3,1.4c0,0.4-0.2,0.7-0.4,1c-0.2,0.3-0.5,0.6-0.9,0.7
		c0,0.1,0,0.2,0,0.2c0,0.1,0,0.2,0,0.3c1,0.4,2.2,1.1,2.9,1.9c0.6,0.7,0.8,1.5,1,2.4c0.1,0.5,0.1,1.1,0.1,1.7c0,0.5,0,1.1-0.1,1.6
		c0,0.4-0.1,1.2-0.5,1.3c-0.3,0.1-0.6-0.2-0.7-0.4c-0.1-0.1-0.1-0.1-0.2-0.2c0,0-0.1-0.1-0.1-0.1c-0.5-0.5-1.1-0.8-1.8-1.1
		c-0.3-0.1-0.6-0.3-0.9-0.4c-0.2,0.2-0.3,0.4-0.5,0.6c-0.4,0.5-0.7,1-1,1.6c-0.2,0.3-0.3,1.1-0.8,1.1c-0.5,0-0.7-0.8-0.9-1.1
		c-0.5-1-0.8-2.1-1-3.2c0-0.1,0-0.3-0.1-0.4c-0.4,0.8-0.8,1.6-1.1,2.5c-0.9,2.1-1.8,4.2-2.6,6.3c-0.7,1.9-1.3,3.9-1.6,6
		c0.7,0,1.3,0.3,1.9,0.8c0.3,0.3,0.6,0.7,0.7,1.1c0.3,0,0.5,0.1,0.8,0.1c0.3,0.1,0.6,0.1,0.8,0.2c0.7,0.2,1.6,0.6,2.1,1.2
		c0.2,0,0.5,0,0.7,0c0.3,0,0.6,0.1,1,0.1c0.6,0.1,1.2,0.3,1.8,0.4c0.2,0,0.4,0.1,0.5,0.2c1.4-0.3,2.8-0.4,4.2-0.4
		c12.5,0,22.7,10.2,22.7,22.7c0,12.5-10.2,22.7-22.7,22.7c-1.6,0-3.1-0.2-4.7-0.5l-0.1,0.4l-0.9-0.5l1,5c0.5,0.1,0.9,0.5,1.2,0.9
		c0.5,0.7,0.7,2.1,0.8,3C58.3,150.2,60.2,151.8,62,153.5z"/>
	<path class="st0" d="M54.1,72c0.7,1.6,1.2,3.3,0.4,4.9c-0.3,0.6-0.7,1.1-1.1,1.6c-0.4,0.5-0.8,1-1,1.7c-0.1,0.3-0.3,1-0.6,1
		c-0.3,0-0.5-0.7-0.7-1c-0.4-0.9-0.8-2.1-1-3.1c-0.1-0.7-0.1-1.5,0.1-2.2c0.3-1.1,1.2-2.3,1.9-3.1c0.3-0.4,0.7-0.8,1.2-0.7
		C53.7,71.2,53.9,71.6,54.1,72z"/>
	<path class="st1" d="M53.5,72.3c2,4.5-0.5,4.7-1.8,7.6c0,0-1.4-3-0.9-4.8c0.3-1,1.1-2.2,1.7-2.9C53.1,71.6,53.2,71.6,53.5,72.3z"/>
	<path class="st0" d="M51.9,72.5c0-0.4,0.1-0.9,0.5-1.2c0.5-0.3,1-0.1,1.4,0.1c1,0.4,2.4,1.2,3.2,2c0.5,0.6,0.8,1.5,0.9,2.3
		c0.2,1,0.2,2.2,0,3.2c0,0.3-0.1,1-0.3,1.1c-0.2,0.1-0.6-0.5-0.8-0.7c-0.6-0.5-1.2-0.8-1.8-1.1c-0.6-0.3-1.3-0.6-1.9-1
		C51.8,76.1,51.7,74.2,51.9,72.5z"/>
	<path class="st1" d="M52.6,72.6c-0.6,5.3,2.2,4.2,4.7,6.3c0,0,0.4-3.5-0.8-5c-0.7-0.8-2-1.5-2.9-1.8C52.8,71.7,52.6,71.8,52.6,72.6
		z"/>
	<path class="st2" d="M50.8,75.5c0.4,0.2,0.6,0.7,0.6,1.4c0,0.5-0.2,0.8-0.4,1c0,0.2,0.1,0.4,0.1,0.5c0.3-0.2,0.5-0.5,0.7-0.9
		l0.1-0.5c0.2-1-0.3-1.7-1-2c0,0.1,0,0.1,0,0.2C50.8,75.2,50.8,75.3,50.8,75.5z"/>
	<path class="st0" d="M50.8,75.4c0.2,0.1,0.4,0.3,0.5,0.5c0.1,0.2,0.2,0.5,0.1,0.9c0,0.2-0.1,0.4-0.1,0.6c-0.1,0.2-0.2,0.3-0.3,0.4
		c0,0.1,0,0.1,0.1,0.2c0,0,0,0.1,0,0.1c0.1-0.1,0.2-0.2,0.3-0.3c0.1-0.1,0.2-0.3,0.3-0.5l0.1-0.4c0.1-0.4,0-0.8-0.1-1.2
		c-0.2-0.3-0.4-0.6-0.8-0.7l0,0.1c0,0.1,0,0.1,0,0.2C50.9,75.3,50.9,75.4,50.8,75.4L50.8,75.4z M51.1,76c-0.1-0.2-0.2-0.4-0.4-0.5
		l-0.1,0l0-0.1c0-0.1,0-0.1,0-0.2c0-0.1,0-0.1,0-0.2c0,0,0,0,0-0.1v0c0,0,0-0.1,0-0.1l0-0.1l0.1,0c0.4,0.2,0.7,0.4,0.9,0.8
		c0.2,0.4,0.3,0.8,0.2,1.3l-0.1,0.5l0,0c-0.1,0.2-0.2,0.4-0.3,0.5v0c-0.1,0.2-0.3,0.3-0.4,0.4l-0.1,0.1l0-0.1c0-0.1,0-0.2-0.1-0.3
		c0-0.1,0-0.2-0.1-0.3l0,0l0,0c0.1-0.1,0.2-0.2,0.3-0.4c0.1-0.1,0.1-0.3,0.1-0.5C51.3,76.5,51.2,76.3,51.1,76z"/>
	<path class="st2" d="M53.7,74.1c0.1,0.1,0.3,0.3,0.4,0.4c0.6-1,2.4-1.4,2.6,0.6c-0.1,0.5-0.3,1-0.7,1.2c0.1,0.1,0.3,0.3,0.4,0.4
		c0.4-0.3,0.6-0.8,0.7-1.2c-0.1-0.6-0.3-1.2-0.7-1.7c-0.2-0.3-0.5-0.5-0.8-0.7C54.9,73.1,54.1,73.4,53.7,74.1z"/>
	<path class="st0" d="M53.8,74.1c0.1,0,0.1,0.1,0.2,0.2l0.1,0.1c0.2-0.3,0.5-0.5,0.8-0.7c0.2-0.1,0.5-0.1,0.7-0.1
		c0.2,0,0.5,0.2,0.7,0.4c0.2,0.2,0.4,0.6,0.4,1.2l0,0l0,0c-0.1,0.3-0.1,0.5-0.3,0.7c-0.1,0.2-0.2,0.3-0.4,0.5l0.1,0.1l0.1,0.1
		c0.1-0.1,0.3-0.3,0.4-0.5c0.1-0.2,0.2-0.4,0.3-0.6c-0.1-0.3-0.1-0.6-0.3-0.9c-0.1-0.3-0.3-0.5-0.4-0.7c-0.1-0.1-0.2-0.2-0.3-0.3
		c-0.1-0.1-0.3-0.2-0.4-0.3c-0.4,0-0.8,0-1.1,0.2C54.2,73.6,54,73.8,53.8,74.1L53.8,74.1z M53.8,74.4c-0.1-0.1-0.1-0.1-0.2-0.2
		l-0.1,0l0-0.1c0.2-0.4,0.5-0.6,0.9-0.8c0.4-0.2,0.8-0.3,1.2-0.2l0,0l0,0c0.2,0.1,0.3,0.2,0.5,0.4c0.1,0.1,0.3,0.2,0.4,0.4
		c0.2,0.2,0.3,0.5,0.5,0.8c0.1,0.3,0.2,0.6,0.3,0.9l0,0l0,0c-0.1,0.2-0.2,0.5-0.3,0.7c-0.1,0.2-0.3,0.4-0.5,0.6l-0.1,0.1l-0.3-0.3
		l-0.3-0.3l0.1-0.1c0.1-0.1,0.3-0.3,0.4-0.5c0.1-0.2,0.2-0.4,0.2-0.7c-0.1-0.5-0.2-0.9-0.4-1.1c-0.2-0.2-0.4-0.3-0.6-0.3
		c-0.2,0-0.4,0-0.7,0.1c-0.3,0.1-0.6,0.4-0.8,0.7l-0.1,0.1l-0.1-0.1C54,74.5,53.9,74.5,53.8,74.4z"/>
	<path class="st0" d="M52.5,73.9C52.3,75.8,52,77,51.9,79c0,0.7-0.1,1.4-0.1,2.1c-0.5-2-0.1-5.2,0.1-7.2c0-0.2,0.2-0.3,0.3-0.3
		C52.4,73.5,52.6,73.7,52.5,73.9z"/>
	<path class="st0" d="M53.1,72.2c1.1,3.2,3.9,4.1,4.1,6.6c-1.5-3-3.3-3-4.7-6.3c-0.1-0.2,0-0.4,0.2-0.4C52.9,72,53.1,72.1,53.1,72.2
		z"/>
	<path class="st0" d="M54,71.1c0.1,1.1-0.4,2.1-1.5,2.4c-0.8,0.2-1.7,0.2-2.2-0.5c-0.5-0.7-0.2-1.8,0.1-2.5c0.4-0.7,1.2-1.6,2.1-1.5
		C53.6,69.2,53.9,70.3,54,71.1z"/>
	<path class="st1" d="M53.4,71.2c0.1,0.7-0.2,1.4-1,1.7C48.5,73.8,52.8,66.7,53.4,71.2z"/>
	<path class="st0" d="M2.4,85.2l9.3-4.1c0.2-0.1,0.3-0.1,0.5,0c0.5,0.1,0.7,0.6,0.8,1.1c0,0.1,0.1,0.2,0.1,0.2
		c0.8,1.5,1.5,3.1,2.1,4.7c0.8,2.1,1.5,4.2,2.1,6.3c0.9,3.2,3.6,13.3-1.1,14.9c-1.5,0.5-3.1,0.1-4.5-0.5c-1.8-0.9-3.4-2.4-4.6-4
		C3.3,98.7,2,91.9,2,85.9C2,85.6,2.1,85.3,2.4,85.2z"/>
	<path class="st0" d="M32.9,103.2c-0.1,0-0.3,0.1-0.4,0.1c-0.3,0.1-0.5,0.2-0.8,0.3c-0.8,0.3-1.5,0.7-2.3,1c-2.2,1-4.3,1.9-6.6,2.6
		c-2,0.6-4.1,1.2-6.2,1.3c-2.1,0.1-4.7-0.3-5.8-2.2c-0.9-1.4-0.5-3.1,0.2-4.5c1.2-2.4,4.8-4,7.1-4.9c2.9-1.1,10.2-2.7,13.3-3
		c0,0,0.1,0,0.1,0c1.3,0.1,2.5,0.5,3.1,1.6c0.6,1.1,0.5,2.5,0.2,3.7c-0.3,1.2-0.9,2.6-1.5,3.7C33.3,103.1,33.1,103.2,32.9,103.2z"/>
	<path class="st3" d="M31.6,94.6c-10.1,1.2-18.2,4.3-19.9,7.6c-1.9,3.9,0.9,6,5,5.8c6.2-0.4,14.9-5.2,16.1-5.4
		C32.8,102.5,37.3,94.9,31.6,94.6z"/>
	<path class="st4" d="M11.3,105.6c0.6,1.7,2.7,2.5,5.4,2.3c3.2-0.2,7-1.5,10.1-2.8c-0.2-1.2-0.4-2.4-0.4-2.4s-2.4,2-7,3.5
		C16,107.3,13.1,107,11.3,105.6z"/>
	<path class="st3" d="M2.7,85.9c0,16,8.8,23.1,13.3,21.7c2.5-0.8,2.7-4.9,1.8-9.6c-1.1-5.7-3.7-12.3-5.2-15.3
		c-0.2-0.4-0.3-1.1-0.5-0.9L2.7,85.9z"/>
	<path class="st4" d="M10.2,105.9c2.1,1.6,4.2,2.1,5.7,1.6c0.4-0.1,0.8-0.4,1.1-0.7c-3.4,0.5-6-0.6-7.3-2.9
		C9.9,104.6,10,105.3,10.2,105.9z"/>
	<path class="st4" d="M2.7,87.6c0.6,13.5,7.5,20.1,12.1,20.1c-5.3-2.6-9.5-10.3-8.9-19C4.3,87.9,3.9,88.2,2.7,87.6z"/>
	<path class="st0" d="M52.4,151.3c0,0-0.1,0-0.1,0c-0.5,0-0.8-0.4-0.8-0.9c0-0.1,0-0.2,0.1-0.3c0-0.2-0.1-0.5-0.1-0.6
		c-0.2-0.8-0.4-1.7-0.6-2.5c-0.4-1.7-0.9-3.3-1.3-5c-0.8-2.7-1.6-5.5-2.4-8.2c-0.1-0.3,0-0.6,0.2-0.9c0.2-0.2,0.6-0.3,0.9-0.2
		l3.2,1.1c0.3,0.1,0.5,0.3,0.6,0.6l3.2,15.8c0.1,0.3,0,0.5-0.2,0.7c-0.2,0.2-0.4,0.3-0.7,0.3H52.4z"/>
	<path class="st3" d="M52.4,151.3C52.4,151.3,52.4,151.3,52.4,151.3c-0.1,0-0.1,0-0.1,0c-0.2,0-0.4-0.1-0.6-0.3
		c-0.1-0.2-0.2-0.4-0.2-0.6c0,0,0-0.1,0-0.1c0,0,0-0.1,0-0.1c0-0.2-0.1-0.4-0.1-0.6l0-0.1c-0.1-0.4-0.2-0.8-0.3-1.3
		c-0.1-0.4-0.2-0.8-0.3-1.3c-0.2-0.8-0.4-1.7-0.6-2.5c-0.2-0.8-0.5-1.7-0.7-2.5c-0.4-1.4-0.8-2.7-1.2-4.1c-0.4-1.4-0.8-2.7-1.2-4.1
		c0-0.2,0-0.3,0-0.5c0-0.1,0.1-0.3,0.2-0.4c0.1-0.1,0.3-0.2,0.4-0.2c0.1,0,0.3,0,0.5,0l3.2,1.1c0.1,0.1,0.3,0.1,0.4,0.2
		c0.1,0.1,0.2,0.2,0.2,0.4l3.2,15.8c0,0.1,0,0.3,0,0.4c0,0.1-0.1,0.2-0.2,0.3s-0.2,0.2-0.3,0.2c-0.1,0.1-0.2,0.1-0.4,0.1H52.4
		L52.4,151.3z M52.4,151.3C52.4,151.3,52.4,151.3,52.4,151.3l2.1,0c0.1,0,0.3,0,0.4-0.1c0.1-0.1,0.2-0.1,0.3-0.2
		c0.1-0.1,0.1-0.2,0.2-0.3c0-0.1,0-0.2,0-0.4l-3.2-15.8c0-0.2-0.1-0.3-0.2-0.4c-0.1-0.1-0.2-0.2-0.4-0.2l-3.2-1.1
		c-0.2-0.1-0.3-0.1-0.5,0c-0.1,0-0.3,0.1-0.4,0.2c-0.1,0.1-0.2,0.2-0.2,0.4c0,0.1,0,0.3,0,0.5c0.4,1.4,0.8,2.7,1.2,4.1
		c0.4,1.4,0.8,2.7,1.2,4.1c0.2,0.8,0.5,1.7,0.7,2.5c0.2,0.8,0.4,1.7,0.6,2.5c0.1,0.4,0.2,0.8,0.3,1.3c0.1,0.4,0.2,0.8,0.3,1.3l0,0.1
		c0,0.2,0.1,0.4,0.1,0.6l0,0l0,0c0,0,0,0.1,0,0.1c0,0,0,0.1,0,0.1c0,0.2,0.1,0.4,0.2,0.6C51.9,151.2,52.1,151.3,52.4,151.3
		C52.3,151.3,52.3,151.3,52.4,151.3z"/>
	<path class="st5" d="M48,133.6c5,16.9,4.4,16.9,4.4,16.9h2.1l-3.2-15.8L48,133.6z"/>
	<path class="st3" d="M48,133.6c4.5,15.2,4.4,16.7,4.4,16.9h2l-3.2-15.8L48,133.6L48,133.6z M52.4,150.4c0,0,0.6,0.1-4.4-16.9l0,0
		c1.1,0.4,2.2,0.7,3.3,1.1c1.1,5.3,2.1,10.5,3.2,15.8L52.4,150.4L52.4,150.4z"/>
	<path class="st0" d="M62.6,151.2h6.8c0.3,0,0.5,0.2,0.5,0.5l0,0c0,0.3-0.2,0.5-0.5,0.5h-6.8c-0.3,0-0.5-0.2-0.5-0.5l0,0
		C62.1,151.5,62.4,151.2,62.6,151.2z"/>
	<path class="st0" d="M41.8,124.1c0.1-0.2,0.1-0.4,0.2-0.6c0.3-0.7,0.8,0.1,1.4,1c2,0.4,4.1,0.5,5.9,0.5c1.3-1.3,2.3-4,3.3-2.8
		c0.6,0.7,1,1.5,1.4,2.4c1.2-0.2,1,1.3,1,1.3c0.2,3.7,0.3,7,0.5,11.5c0.2,0.7,0.3,1.5,0.5,2l-1.6-0.5l-0.3,1.1l-1.3-0.8l-0.8,1
		l-1-0.7l-0.8,1l-1.1-0.9l-0.8,1.2l-1-1.4l-0.5,0.6l-0.9-1.1l-0.8,0.5l-0.3-0.9c-0.1-0.3-0.2-0.5-0.2-0.8l0,0c0,0,0,0-0.5-1.2
		c-0.5-1.2-4.3-8.7-5.6-12.5c1,0.6,1.6-0.4,2.7,0C41.4,124,41.6,124.1,41.8,124.1z"/>
	<path class="st0" d="M30.6,127.5l3.2,1.1c0.3,0.1,0.5,0.3,0.6,0.6l3.8,15.8c0.1,0.3,0,0.5-0.2,0.7c-0.2,0.2-0.4,0.3-0.7,0.3h-2.1
		c-0.4,0-0.7-0.2-0.8-0.6c-1.7-5.6-3.3-11.3-5-16.9c-0.1-0.3,0-0.6,0.2-0.9C30,127.4,30.3,127.4,30.6,127.5z"/>
	<path class="st5" d="M30.3,128.3c5,16.9,5,16.9,5,16.9h2.1l-3.8-15.8L30.3,128.3z"/>
	<path class="st0" d="M33.2,130.4c2.1,0,3.8,1.2,3.8,2.6c0,1.4-1.7,2.6-3.8,2.6c-2.1,0-3.8-1.2-3.8-2.6c0-0.4,0.1-0.7,0.3-1l0,0
		c-1.5-1.2-2.7-3.1-3.2-5.4c0.8,1,1.8,1.8,2.8,2.6c0.2,0.5,0.5,0.9,0.7,1.3c0.1,0.2,0.3,0.4,0.5,0.6l0,0
		C31.2,130.7,32.2,130.4,33.2,130.4z"/>
	<path class="st6" d="M33.2,130.4c1,0,2,0.3,2.7,0.8c0.7,0.5,1.1,1.1,1.1,1.8c0,0.7-0.4,1.4-1.1,1.8c-0.7,0.5-1.6,0.8-2.7,0.8
		c-1,0-2-0.3-2.7-0.8c-0.7-0.5-1.1-1.1-1.1-1.8c0-0.2,0-0.3,0.1-0.5c0-0.2,0.1-0.3,0.2-0.5c-0.8-0.6-1.4-1.4-2-2.3
		c-0.5-0.9-0.9-1.9-1.2-3l0,0l0,0c0.4,0.5,0.9,0.9,1.3,1.4c0.5,0.4,1,0.8,1.5,1.2l0,0l0,0c0.1,0.2,0.2,0.4,0.3,0.7
		c0.1,0.2,0.3,0.4,0.4,0.6c0.1,0.1,0.2,0.2,0.2,0.3c0.1,0.1,0.2,0.2,0.2,0.3c0.3-0.2,0.8-0.4,1.2-0.6
		C32.2,130.4,32.7,130.4,33.2,130.4L33.2,130.4z M35.9,131.1c-0.7-0.5-1.6-0.8-2.7-0.8c-0.5,0-1,0.1-1.4,0.2
		c-0.5,0.1-0.9,0.3-1.2,0.6l0,0l0,0c-0.1-0.1-0.2-0.2-0.2-0.3c-0.1-0.1-0.2-0.2-0.2-0.3c-0.1-0.2-0.3-0.4-0.4-0.6
		c-0.1-0.2-0.2-0.4-0.3-0.7c-0.5-0.4-1-0.8-1.5-1.2c-0.5-0.4-0.9-0.9-1.3-1.3c0.2,1.1,0.6,2.1,1.2,3c0.5,0.9,1.2,1.7,2,2.3l0,0l0,0
		c-0.1,0.2-0.2,0.3-0.2,0.5c0,0.2-0.1,0.3-0.1,0.5c0,0.7,0.4,1.4,1.1,1.8c0.7,0.5,1.6,0.8,2.7,0.8c1,0,2-0.3,2.7-0.8
		c0.7-0.5,1.1-1.1,1.1-1.8S36.6,131.6,35.9,131.1z"/>
	<path class="st0" d="M31.7,116.8c0.2,0,0.5,0,0.7,0c1.9,0.2,3.6,1.4,4.8,2.8c1.3,1.6,2.1,3.7,2.3,5.7c0.2,1.7,0,3.4-0.7,5
		c-0.6,1.4-1.7,2.6-3,3.2c-0.8,0.4-1.6,0.5-2.4,0.5c-0.2,0-0.5,0-0.7,0c-1.9-0.2-3.6-1.4-4.8-2.8c-1.3-1.6-2.1-3.7-2.3-5.7
		c-0.2-1.7,0-3.4,0.7-5c0.6-1.4,1.7-2.6,3-3.2C30.1,117,30.9,116.8,31.7,116.8z"/>
	<path class="st0" d="M37.9,93.2c-9.2,0-15.8,9.1-15.2,20.3c0.7,12.3,10.1,19.2,18.7,19.1c5.1-0.1,9.5-1.7,10.9-7
		c0.4-1.6-0.9-3.8,0.1-5.9c1-2,1.3-7.9,1.2-9.9C52.9,98.6,47.1,93.2,37.9,93.2z"/>
	<path class="st0" d="M24.3,117.5c5.9,4.9,18.3,3.6,25,1.2c1.4-0.5,2.2-2.2,3.2-1.4c1.6,1.1,2,8.2,1.2,9.5c-1.6,2.5-3.8,4.6-6.8,5.7
		c-4.3,1.6-9.2,1.1-13.4-0.8c-3.9-1.8-6.8-4.1-8.8-7.6c-1-1.7-0.3-2.7-1.1-4.5c-0.1-0.2-0.2-0.4-0.2-0.6c0-0.4-1.6-1.5-1.4-1.8
		c0.4-0.6,1.1-0.9,1.7-0.5C24.1,116.8,24.1,117.1,24.3,117.5z"/>
	<path class="st0" d="M34.6,127.4c-2.9,0-7.1-7.3-7.9-4.8c-1.1-0.6-2.3-1.3-3.3-2.2c1,3.8,3.9,12.6,4.3,13.9
		c0.4,1.2,0.4,1.2,0.4,1.2l0,0c0,0.1,0.1,0.3,0.1,0.4l0.3,0.9l0.7-0.5l0.8,1l0.5-0.5l0.9,1.2l0.7-1.1l0.9,0.8l0.7-0.9l0.9,0.6
		l0.7-0.9l1.2,0.7l0.3-1l1.5,0.6c-0.1-0.5-0.2-0.9-0.3-1.3c0,0,0,0,0,0l-0.2-0.7c-0.1-0.2-0.1-0.4-0.2-0.7l-0.1-0.3l-0.2-1.9
		c1.1-1.4,1.7-2.5,1.4-5.8C38.4,123,37.5,127.4,34.6,127.4z"/>
	<path class="st6" d="M27.4,122.8c-0.1,0.2-0.2,0.3-0.4,0.4c-0.2,0.1-0.4,0.1-0.6,0c-0.6-0.3-1.2-0.7-1.8-1.1
		c0.4,1.4,0.9,2.8,1.3,4.2c0.5,1.6,1,3.2,1.5,4.9c0.3,0.9,0.6,1.9,0.9,2.8c0.1,0.3,0.2,0.6,0.3,0.9l0,0l0.2,0.8l0.5-0.3l0.7,0.9
		l0.5-0.5l0.8,1.1l0.6-0.9l1,0.8l0.7-0.8l0.9,0.6l0.7-0.8l0.9,0.6l0.2-0.8l1.1,0.4c0,0-0.1-0.1-0.4-1.4l0,0l0-0.1c0,0,0-0.1,0-0.1
		l-0.2-2.1c0-0.2,0-0.3,0.1-0.5c0.3-0.3,0.5-0.7,0.7-1.1c0.3-0.5,0.5-1,0.5-1.6c0.1-0.9,0.1-1.8,0-2.7c0,0,0-0.1,0-0.2
		c-0.2,0.2-0.4,0.5-0.7,0.7c-0.8,0.7-1.6,1.2-2.7,1.2c-1.5,0-3.2-1.5-4.2-2.5c-0.7-0.6-1.3-1.3-2-2C28.2,123.4,27.7,123,27.4,122.8z
		"/>
	<path class="st7" d="M23.9,120.9c0.9,2.1,2.6,2.5,4.1,4.1c1.5,1.6,2.8,4.3,4.8,5.4c2.8,1.5,5.9,2.3,8.8,2.2
		c12.8-0.2,12.1-13.9,10.6-14.2c-0.7-0.1-0.7,0.4-2.7,1.1c-6.5,2.3-19.6,3.9-25.9-1.5c-0.1-0.1-0.3-0.7-0.4-0.8
		c-0.3-0.2-0.8,0.5-0.8,0.8C22.5,118.1,23.7,120.5,23.9,120.9z"/>
	<path class="st0" d="M27.7,121.1c6.5,2.3,16,1.1,21.6-0.9c1.4-0.5,3.9-1.4,5.2-0.4c0.4,0.3-0.3,0.6-0.1,1.1c0,0.2,0.1,0.3,0.1,0.5
		c0,0.1,0,0.1,0,0.2c0.1,0.2,0.6,3.5,0.6,3.7c-0.3,1.1-0.2-0.8-0.6,0.1c-2.5,5.2-7.3,8.1-13.5,8.1c-1.4,0-2.8-0.2-4.1-0.6
		c-2.1-0.6-5.7-2.6-7.7-5.3c-1.7-1.1-2.7-3.1-4-5.2c-0.1-0.1-0.6-0.9-0.5-0.5c0.2,0.9,0.9,3.4,0.7,3c-0.1-0.1-4.5-7.9-2.9-7.5
		c0,0.1,0.1,0.2,0.1,0.2c0.3,0.6,1.1,1.4,2.4,2.1C25.8,120.4,27.1,120.9,27.7,121.1z"/>
	<path class="st6" d="M23.9,120.9c3.2,7.2,10.7,11.7,17,11.7c0.7,0,1.4,0,2.1-0.1c0.2,0.3,0.3,0.7,0.5,1c0.6,1.2,1.1,2.3,1.6,3.6
		l0,0l0.3,1.1l0.6-0.4l0.8,1l0.6-0.6l0.9,1.3l0.7-1l1.1,1l0.8-1l1,0.7l0.8-1l1.1,0.7l0.3-1l1.3,0.5c0,0-0.1-0.1-0.4-1.2l0,0
		c-0.1-1.5-0.8-17-2-17c-0.7,0-1.8,0.2-3.3,0.8c-6.4,2.3-19.2,3.8-25.7-1.1c-0.8-0.6-0.8-0.8-0.2,0.3
		C23.7,120.5,23.9,120.8,23.9,120.9z"/>
	<path class="st0" d="M52.7,109.8C52.7,109.8,52.7,109.9,52.7,109.8c-1.5,1.4-1.5,2.2-3.4,2.7c-1.5,0.4-3,0.7-4.4,0.9
		c-0.6,0.1-1.1,0.2-1.7,0.2c-0.4,0-0.8,0.1-1.1,0.1c-1.2,0-2.4-1.4-3-2.3c-0.6-0.7-1.1-1.6-1.6-2.4l-7.4-0.6l-2.9,3.3
		c-0.2,0.2-0.4,0.3-0.6,0.3c-0.4,0-0.9-0.1-1.3-0.1c-1-0.2-2-0.5-3-0.9c-0.3-0.1-0.5-0.5-0.5-0.9c0.3-3.2,1.2-6.2,2.7-9
		c2.1-3.8,5.5-6.2,9.9-5.8c1.9-1,1.2-2.8,3.4-2.8c1.8,0,3.6,0.3,5.3,0.9c6.6,2.4,8.3,8.9,9.9,15.7C53.1,109.3,53,109.6,52.7,109.8z"
		/>
	<path class="st3" d="M37.8,93.2c-8.2,0-14.4,7.3-15.2,16.9c2.3,1,4,1,4,1l3.2-3.6l8.2,0.7c0,0,2.6,4.7,4.1,4.7
		c1.5,0,11.2-2.4,12.6-3.7c0.6-0.5-0.7,0.5-0.8,0.5c-0.1,0.1,0.8-0.6,0.8-0.6C52.5,100.1,46,93.2,37.8,93.2z"/>
	<path class="st0" d="M22.8,108.9c1.9,0.8,3.1,0.9,3.6,1l3.3-3.6l8.7,0.7l0.1,0.1c0,0,1,1.7,2,3.1l-0.3,0.3c-0.9-1.2-1.8-2.8-2-3.2
		l-8.4-0.7l-3.2,3.5l-0.1,0c0,0-1.5,0.2-3.9-0.8L22.8,108.9z"/>
	<path class="st7" d="M35.4,107.1l-5.7-0.5l0,0l-1.4,1.6l-1.8,2l-0.1,0c0,0-1.4,0.2-3.6-0.7c0,0-0.1,0-0.1,0c0,0.1,0,0.2,0,0.3
		c0,0.1,0,0.3,0,0.4c0,0,0.1,0,0.1,0c0.1,0,0.2,0.1,0.3,0.1c2.1,0.8,3.5,0.8,3.5,0.8l1.2-1.3l1.5-1.7l0.5-0.6l5.6,0.5l0,0l2.6,0.2
		c0,0,0.3,0.5,0.7,1.2c0.1-0.1,0.1-0.2,0.2-0.3c-0.5-0.8-0.8-1.6-1-1.9L35.4,107.1z"/>
	<path class="st8" d="M23.3,108.3c0.5-3.3,2.4-7.9,4.7-10.3l1-0.9c-1.8,4-3.6,6.7-3.9,11.3c0,0.5-0.5,0.9-1,0.8
		C23.6,109.2,23.2,108.8,23.3,108.3z"/>
	<path class="st9" d="M35.1,141.7l-1.4-4.8l-0.6,0.7l1.3,4.4C34.6,141.9,34.9,141.8,35.1,141.7z"/>
	<path class="st0" d="M7.3,151.2h39.2c0.3,0,0.5,0.2,0.5,0.5l0,0c0,0.3-0.2,0.5-0.5,0.5H7.3c-0.3,0-0.5-0.2-0.5-0.5l0,0
		C6.8,151.5,7,151.2,7.3,151.2z"/>
	<path class="st0" d="M43.9,135.9c-0.6-1.3-3.2-6.5-3.4-7.6c0.5,0.6,2.9,4.8,3.9,7.1c0.1,0.2,0.1,0.5,0,0.6
		C44.2,136.1,44,136,43.9,135.9z"/>
	<path class="st0" d="M18.1,96.1c0.4,1.5,0.6,4.9-0.1,6.3c0,0.1-0.2,0.1-0.1-0.1c0-0.1,0-0.2,0.1-0.3c0.4-2.5-0.2-3.7-0.6-6
		c-0.1-0.2,0.1,0,0.3-0.1C17.8,95.8,18,95.9,18.1,96.1L18.1,96.1z M17.9,102.3L17.9,102.3C17.9,102.3,17.9,102.3,17.9,102.3z"/>
	<path class="st0" d="M18.2,97c0.7,1.1,1.1,2,1.2,3.3c-0.6-0.9-1-1.8-1.7-2.7c-0.2-0.1-0.2-0.4,0-0.5C17.8,96.9,18.1,96.9,18.2,97z"
		/>
	<path class="st7" d="M40.1,110.1c-0.2-0.2-0.3-0.4-0.5-0.6c-0.4-0.6-1.2-1.8-1.4-2.3c0-0.1-0.3,0-0.3-0.1c0.2,0.3,0.6,1.1,1,1.9
		c-0.1,0.1-0.1,0.2-0.2,0.3c0.9,1.4,2.3,3.4,3.4,3.4c1.3,0,8-1,11.5-2.8c0.5-0.3,0.9-0.7,1.1-0.8c0.2-0.2,0,0,0,0
		c0-0.2-0.1-0.3-0.1-0.5c-0.4,0.2-0.6,0.4-1,0.6c-1.4,0.7-2.9,1.2-4.3,1.6c-3.8,1.1-7.1,1.4-7.3,1.4c-0.2,0-0.6-0.3-0.9-0.7
		C40.4,111.1,40.5,110.7,40.1,110.1z"/>
	<path class="st0" d="M39.5,109.9c-0.1-0.1-0.2-0.2-0.1-0.3c0.1-0.1,0.2-0.1,0.3,0c0.4,0.5,1,1.2,1.5,1.8c0.3,0.3,0.6,0.6,0.6,0.6
		c0.2,0,3.4-0.3,7.2-1.4c2-0.6,3.3-1.1,5.2-2.2c0.1-0.1,0.2,0,0.3,0.1c0.1,0.1,0,0.2-0.1,0.3c-1.9,1.1-3.3,1.6-5.3,2.2
		c-3.8,1.1-7.1,1.4-7.3,1.4c-0.2,0-0.6-0.3-0.9-0.7C40.4,111.1,39.9,110.4,39.5,109.9z"/>
	<path class="st0" d="M5.9,80c-0.3-1.7-0.4-3.5-0.3-5.2c0.1-1.2,0.3-2.8,0.8-3.9c0.3-0.6,0.7-1.3,1.1-1.8c0.4-0.5,0.9-0.9,1.6-0.8
		c1.1,0.3,1,2.1,1,2.9l0,0.6c0.4-0.9,0.8-1.7,1.4-2.3c0.3-0.3,0.6-0.7,1.1-0.9c0.4-0.2,0.9-0.3,1.3-0.1c1.1,0.5,0.9,2.2,0.6,3.1
		l-3.2,12.9c-0.1,0.3-0.3,0.5-0.6,0.5c-0.2,0-0.7,0.1-0.8,0.3c-0.2,0.3-0.1,0.9,0,1.2c0.1,0.8,0.3,1.6,0.5,2.3c0,0.2,0,0.3-0.1,0.5
		c-0.3,0.5-0.5,0-1,0.2c-0.8,0.5-1.9,1.1-2.7,1.3c-1.7,0.5-3.2,0.1-4.3-2c-0.8-1.5-0.8-3.5-0.4-5.1c0,0,0-0.1,0-0.1
		C2.7,82.2,4.3,80.9,5.9,80z"/>
	<path class="st3" d="M2.5,84.2c-0.5,1.7-0.3,6.1,2.8,7c3.1,0.9,4.3-2.1,4.3-2.1c-0.4-2.5-1.4-4.4,1-4.6l3.2-12.9
		c0.7-2.7-0.6-3-1.8-1.5c-1.1,1.3-2.2,4.1-2.6,7.8l0-6.5c0.2-3.5-1.2-2.5-2.4,0C6.4,72.7,6,76,6.5,79.7c0,0.2-1,0-0.9,0.2
		C4.4,80.5,3.4,82.2,2.5,84.2z"/>
	<g>
		<path class="st8" d="M9.3,69.3c-0.4-0.9-1.4,0.2-2.2,1.9c-0.6,1.3-1,4.2-0.7,7.4c0.2-0.5,0.4-1.4,0.5-2.9
			C7.1,72.7,7.3,71.5,9.3,69.3z"/>
		<path class="st8" d="M13.9,69.5c-0.3-0.6-1.1-0.4-1.8,0.5c-1.1,1.3-2.2,4-2.6,7.7L9.8,78c0,0,0.1-0.6,0.8-3.1
			C11.1,72.7,12.4,70.8,13.9,69.5L13.9,69.5z M9.5,77.7l0-1.2C9.4,77.2,9.4,77.6,9.5,77.7L9.5,77.7z"/>
	</g>
	<path class="st0" d="M0.4,81.3c0.3-0.8,0.9-1.5,1.8-1.6c1.1-0.1,1.8,0.8,2.2,1.7c0.4,1.1,0.6,2.7,0.6,3.9c0,0,0,0,0,0.1
		c0,0.4-0.1,0.8-0.3,1.1c-0.2,0.5-0.5,1-1,1.2c-0.9,0.3-1.6-0.5-2-1.2C0.7,85.1-0.2,82.9,0.4,81.3z"/>
	<path class="st3" d="M1.1,81.5c-0.4,1.1,0,2.8,1.1,4.6c1.6,2.5,2-0.9,2-0.9s0.1-2.2-0.5-3.6C2.9,79.7,1.5,80.3,1.1,81.5z"/>
	<path class="st8" d="M1.1,81.5c-0.4,1.1,0,2.8,1.1,4.6C2.7,86.8,3,87,3.3,87c-0.2-0.2-0.6-0.8-1.2-2c-0.8-1.9-0.8-3.6,0.1-4.6
		C1.7,80.4,1.3,80.9,1.1,81.5z"/>
	<path class="st0" d="M9.5,73.4c0-0.1,0.1-0.2,0.2-0.2c0.1,0,0.2,0.1,0.2,0.2c0,0.8-0.1,1.4-0.1,2c-0.1,0.7-0.1,1.4-0.1,2.7
		c0,0.1-0.1,0.2-0.2,0.2c-0.1,0-0.2-0.1-0.2-0.2c0-1.3,0.1-2,0.1-2.7C9.5,74.7,9.5,74.2,9.5,73.4z"/>
	<path class="st0" d="M6.6,72.1c-0.1,0.1-0.2,0-0.2,0c-0.1-0.1,0-0.2,0-0.2c0,0,0.1-0.1,0.1-0.1c0.3-0.2,1-0.3,1.6-0.2
		c0.6,0.1,1.3,0.2,1.6,0.6c0,0,0.1,0.1,0.1,0.1c0,0.1,0,0.2-0.1,0.2c-0.1,0-0.2,0-0.2-0.1c0,0,0-0.1-0.1-0.1
		c-0.2-0.3-0.8-0.5-1.3-0.5C7.5,71.9,7,71.9,6.6,72.1C6.7,72.1,6.7,72.1,6.6,72.1z"/>
	<path class="st0" d="M6.1,75.7c-0.1,0.1-0.2,0.1-0.2,0c-0.1-0.1-0.1-0.2,0-0.2c0,0,0.1-0.1,0.1-0.1C6.3,75.1,7,75,7.7,75
		c0.7,0,1.4,0.2,1.8,0.6c0,0,0.1,0.1,0.1,0.2c0.1,0.1,0,0.2-0.1,0.2c-0.1,0.1-0.2,0-0.2-0.1c0,0-0.1-0.1-0.1-0.1
		c-0.3-0.3-0.9-0.5-1.5-0.5C7.1,75.3,6.5,75.5,6.1,75.7C6.1,75.7,6.1,75.7,6.1,75.7z"/>
	<path class="st0" d="M10.9,72c-0.1,0-0.2,0-0.2-0.1c0-0.1,0-0.2,0.1-0.2c0,0,0.1,0,0.1-0.1c0.4-0.1,1-0.1,1.6,0.1
		c0.6,0.2,1.2,0.5,1.4,0.9c0,0.1,0,0.1,0.1,0.2c0,0.1,0,0.2-0.1,0.2c-0.1,0-0.2,0-0.2-0.1c0,0,0-0.1,0-0.1c-0.2-0.4-0.7-0.6-1.2-0.8
		C11.8,71.9,11.2,71.8,10.9,72C10.9,71.9,10.9,71.9,10.9,72z"/>
	<path class="st0" d="M9.8,75.5c-0.1,0-0.2,0-0.2-0.1c0-0.1,0-0.2,0.1-0.2c0,0,0.1,0,0.1-0.1c0.4-0.1,1.1-0.2,1.8,0
		c0.7,0.1,1.4,0.5,1.6,0.9c0,0.1,0.1,0.1,0.1,0.2c0,0.1,0,0.2-0.1,0.2c-0.1,0-0.2,0-0.2-0.1c0,0,0-0.1-0.1-0.1
		c-0.2-0.4-0.8-0.6-1.4-0.8C10.8,75.3,10.2,75.3,9.8,75.5C9.8,75.5,9.8,75.5,9.8,75.5z"/>
	<path class="st0" d="M24.1,121.9c-1-6.1-1-12.5,1.1-18.4c0.6-1.7,1.3-3.3,2.2-4.8c0.3-0.5,0.6-0.9,0.9-1.4c0.1-0.2,0.3-0.4,0.4-0.6
		c0.2-0.5,0.9-0.9,1.4-1.1c0.8-0.4,1.7-0.6,2.5-0.9c2.4-0.7,5-1.2,7.5-1.3c1.9-0.1,3.8-0.1,5.6,0.3c3,0.7,5.1,2.3,6.5,5.1
		c0.5,1.1,0.9,2.3,1.2,3.5c0.3,1.1,0.5,2.1,0.8,3.2c0.2,0.5,0.3,1.1,0.3,1.7c0.1,0.7,0.2,1.5,0.2,2.2c0.1,1.8,0.2,3.5,0.2,5.3
		c0,2.3,0,4.6,0,6.8c0,1-0.1,2.1-0.1,3.2c0,0.1,0,0.2-0.1,0.3c-0.1,0.2-0.6,0.4-0.8,0.9c-0.5,1.1-0.7,2.9-1.2,2.9
		c-0.6,0.1-2-1.7-2.4-2.2c0,0.7,0,2.6-0.4,2.7c-0.5,0.2-2.4-1.9-2.7-2.3c-0.1,0.3-0.7,1.9-0.9,2c-0.4,0.1-1.8-1.5-2-1.9
		c-0.1,0.2-1.4,2.3-1.6,2.3c-0.4,0-2-2.1-2.2-2.4c-0.1,0.3-1.1,2.6-1.4,2.6c-0.3,0-2-2.5-2.2-2.8c-0.2,0.4-1.1,2.6-1.4,2.7
		c-0.4,0.1-1.8-2.1-2-2.5c-0.2,0.3-1.2,2.2-1.4,2.2c-0.4,0-1.9-2.4-2.1-2.8c-0.2,0.3-1.1,2.1-1.4,2.1c-0.4,0-1.5-1.8-1.7-2.2
		c-0.3,0.3-0.7,0.6-1,0.9c-0.2,0.2-0.4,0.2-0.7,0.2c-0.2-0.1-0.4-0.2-0.5-0.5c-0.1-0.4-0.2-0.8-0.3-1.3
		C24.5,124.5,24.2,123.2,24.1,121.9z"/>
	<path class="st10" d="M24.7,121.8c0.5,3.7,0.9,5.2,0.9,5.2c0.6-0.6,1.2-1.1,1.8-1.7c0.2,1.1,0.7,1.9,1.3,2.5
		c0.6-0.8,1.1-1.9,1.6-2.7c0.4,1.1,0.9,2.2,1.8,3.3c0.5-0.9,1-1.7,1.5-2.6c0.4,1.1,1.1,2,1.8,2.9c0.5-1.1,1-2.1,1.4-3.2
		c0.5,1.2,1.3,2.2,2.1,3.3c0.7-1.1,1.1-2.3,1.3-3.6c0.5,1.3,1.2,2.5,2.3,3.5c0.8-1,1.4-2,1.4-3c0.5,0.9,1,1.7,2,2.6
		c0.5-1,0.8-2,0.7-3c0.7,1.4,1.7,2.5,2.8,3.6c0-1.1,0-2.3,0.1-3.4c1,0.9,1.8,1.8,2.8,2.6c0.3-0.5,0.5-2,0.8-2.5
		c0.2-0.5,0.6-0.1,0.9-0.6c0,0,0.6-15.1-0.6-19c-1.2-3.9-1.5-9.9-8-11.3C39,93,29.5,96.1,29.2,96.9C29,97.8,22,105.3,24.7,121.8z"/>
	<path class="st11" d="M48.3,95.5c-0.8-0.4-1.7-0.8-2.7-1c-4.6-1-10.7,0.2-14,1.3c-2,2-3.3,5.1-2.1,9.7c0-4,2.7-7.7,2.7-7.7
		s0.6,1.5,5.1,2.2c4.5,0.7,7.1-0.8,7.1-0.8s-0.7,8.4-1.2,10.2C42.8,110.8,47.3,98.5,48.3,95.5z"/>
	<path class="st0" d="M2.8,80.4c0.3-1,1.1-1.9,2.2-1.8c0.6,0.1,1,0.4,1.3,0.9c0.1,0.1,0,0,0,0.1c0.2,0.4-1.3-0.4-1.2,0
		c0.1,0.5,1.6,2.5,1.7,3C6.9,83.4,7.1,84,7,84.7c0,0,0,0,0,0.1c-0.1,0.4-0.2,0.8-0.3,1.2c-0.2,0.5-0.5,1-1,1.1c-0.4,0.1-0.7,0-1-0.3
		c-0.3-0.3-0.6-0.6-0.7-1c-0.2-0.4-0.4-0.9-0.6-1.4C2.9,83.2,2.5,81.5,2.8,80.4z"/>
	<path class="st3" d="M3.4,80.6c-0.3,1.1,0.2,3.3,1,4.8c1.3,2.5,2-0.8,2-0.8C6.5,83,6.3,81.8,6.2,81c-0.1-0.6,0-1-0.2-1.3
		c-0.2-0.2-0.6-0.3-0.8-0.4C4.5,79,3.7,79.6,3.4,80.6z"/>
	<path class="st8" d="M3.4,80.6c-0.3,1.1,0.2,3.3,1,4.8c0.2,0.5,0.5,0.7,0.7,0.9c-0.2-0.5-0.6-1.5-0.9-3.1C3.8,81,3.9,80,4.6,79.3
		C4.1,79.4,3.6,79.8,3.4,80.6z"/>
	<path class="st0" d="M6.2,84.2c-0.1-0.3-0.3-0.4-0.5-0.5c-0.2-0.1-0.3-0.1-0.5,0c-0.2,0-0.4,0.1-0.5,0.2C4.3,84,4.1,84.3,4,84.6
		l-0.3-0.1c0.1-0.4,0.4-0.8,0.8-1c0.2-0.1,0.4-0.2,0.6-0.2c0.2,0,0.5,0,0.7,0.1c0.3,0.1,0.5,0.3,0.7,0.7L6.2,84.2z"/>
	<path class="st0" d="M5.5,81c-0.1-0.1-0.1-0.2,0-0.3c0.1-0.1,0.2-0.1,0.3,0c0.3,0.3,0.6,1,0.8,1.8c0.1,0.8,0.2,1.7,0.1,2.8
		c0,0.1-0.1,0.2-0.2,0.2c-0.1,0-0.2-0.1-0.2-0.2c0.1-1,0.1-1.9-0.1-2.7C6,81.8,5.7,81.2,5.5,81z"/>
	<path class="st0" d="M6.1,82.3c-0.6-1.1-2.2-0.9-2.6,0.2l-0.3-0.1c0.4-1.5,2.5-1.7,3.2-0.3L6.1,82.3z"/>
	<path class="st0" d="M3.8,84.7c-0.2-0.2-0.4-0.4-0.6-0.4c-0.2,0-0.4,0-0.6,0c-0.2,0-0.4,0.1-0.5,0.2c-0.3,0.2-0.5,0.5-0.6,0.8
		l-0.4-0.1c0.1-0.4,0.4-0.8,0.7-1.1C2,84,2.3,83.9,2.5,83.9c0.2-0.1,0.5-0.1,0.7,0c0.3,0.1,0.6,0.3,0.8,0.6L3.8,84.7z"/>
	<path class="st0" d="M3,82.8c-0.1-0.2,0.1-0.2,0-0.3c-0.8-0.6-2.2-0.2-2.4,0.8l-0.4-0.1C0.5,82,2,81.5,3.1,82.1
		c0.2,0.1,0.1,0.3,0.3,0.5L3,82.8z"/>
	<path class="st0" d="M6.5,79.7c-0.1,0-0.2,0-0.2-0.1c0-0.1,0-0.2,0.1-0.2c0.5-0.3,1.8-0.4,3.1-0.4c1,0.1,2,0.3,2.4,0.8
		c0.1,0.1,0.1,0.2,0,0.2c-0.1,0.1-0.2,0.1-0.2,0c-0.4-0.4-1.2-0.6-2.2-0.6C8.2,79.3,6.9,79.4,6.5,79.7z"/>
	<path class="st0" d="M10.4,82.6c-0.4-0.2-0.8-0.5-1.1-0.7c-1-0.7-2.7-2.4-2.2-3.8c0.3-0.9,1.4-0.6,2.1-0.5c0.9,0.2,1.8,0.5,2.7,0.8
		c0.9,0.3,1.2,0.4,2.1,0.7c1.7,0.6,2.6,3.4,2.1,5.1c-1.2,4.4-3.6,7.1-8.5,5.9c-0.2-0.1,0.3,0.3,0.2,0.1c-0.3-1-0.2-1-0.2-1.9
		c-0.1-2,0.3-4.5,2.5-5.6C10.1,82.7,10.2,82.6,10.4,82.6z"/>
	<path class="st3" d="M6.8,90.6c4.8,0.7,7.5-2.9,8.5-5.9c0.2-0.6,0.4-1.2,0.4-1.7c0.1-0.5-0.4-1.6-0.9-2.3c-0.6-0.8-1.7-1.3-1.7-1.3
		c-2.2-0.8-5.2-1.7-5.4-1.1c-0.2,0.7,0.8,2.2,2,3c0.5,0.4,1.7,1,2.3,1.2c0.5,0.1-0.6,0.3-1.7,0.9c-1.8,0.9-3.4,3.4-2.9,6.7
		C7.4,90.4,6.7,90.3,6.8,90.6z"/>
	<path class="st0" d="M12,89.9c0-0.1,0-0.2,0.1-0.2c0.1,0,0.2,0,0.2,0.1c2.2,4.2,3.2,8.7,3.7,11.3c0.2,0.9,0.4,1.6,0.5,1.9
		c0.5,1.1,2,0.7,5.3-0.2c0.8-0.2,1.7-0.5,2.7-0.7c0.1,0,0.2,0,0.2,0.1c0,0.1,0,0.2-0.1,0.2c-1,0.3-1.9,0.5-2.7,0.7
		c-3.5,1-5.2,1.5-5.8,0.1c-0.1-0.3-0.3-1-0.5-2C15.1,98.5,14.1,94.1,12,89.9z"/>
	<g>
		<path class="st0" d="M15.5,81.8c0.5,1,0.2,2.4-0.7,3.1c-0.9,0.7-2.1,0.4-2.6-0.6c-0.5-1-0.2-2.4,0.7-3.1
			C13.7,80.5,14.9,80.7,15.5,81.8z"/>
		<path class="st3" d="M15.1,82.1c-0.4-0.8-1.3-1-2-0.5c-0.7,0.5-1,1.6-0.5,2.3c0.4,0.8,1.3,1,2,0.5C15.2,83.9,15.5,82.8,15.1,82.1z
			"/>
		<path class="st0" d="M14.9,83.3c-0.2,0.7-0.8,1.2-1.4,1.1c-0.6-0.1-1-0.8-0.8-1.6c0.2-0.7,0.8-1.2,1.4-1.1
			C14.7,81.8,15.1,82.5,14.9,83.3z"/>
		<path class="st3" d="M14.7,83.2c0.1-0.6-0.2-1.1-0.7-1.3c-0.5-0.1-1,0.3-1.1,0.8c-0.1,0.6,0.2,1.1,0.7,1.3
			C14,84.2,14.5,83.8,14.7,83.2z"/>
		<path class="st0" d="M14.7,83.2c0-0.1,0-0.1,0-0.2l-1.8-0.4c0,0.1,0,0.1-0.1,0.2c0,0.1,0,0.1,0,0.2l1.8,0.4
			C14.6,83.3,14.7,83.3,14.7,83.2z"/>
	</g>
	<path class="st0" d="M13.2,79.4c0-0.1,0.1-0.2,0.2-0.2c0.1,0,0.2,0.1,0.2,0.2c0,0.6-0.1,1.3-0.4,2c-0.3,0.5-0.7,1-1.4,1.2
		c-0.1,0-0.2,0-0.2-0.1c0-0.1,0-0.2,0.1-0.2c0.6-0.2,1-0.6,1.2-1.1C13.1,80.6,13.2,79.9,13.2,79.4z"/>
	<path class="st0" d="M10.5,78.3c0-0.1,0.1-0.2,0.2-0.2c0.1,0,0.2,0.1,0.2,0.2c0,0.5-0.1,1.2-0.4,1.8c-0.3,0.5-0.7,0.9-1.3,1.1
		c-0.1,0-0.2,0-0.2-0.1c0-0.1,0-0.2,0.1-0.2c0.5-0.2,0.9-0.6,1.1-1C10.4,79.4,10.5,78.8,10.5,78.3z"/>
	<path class="st0" d="M18.4,96.9c4.7-1.2,9.3-2.4,14-3.6c0.3-0.1,0.7,0.1,0.8,0.4c0.1,0.3,0,0.7-0.2,0.8c-0.4,0.3-0.8,0.6-1.2,0.9
		c-0.8,0.7-1.6,1.4-2.2,2.3c-0.3,0.4-0.6,0.9-0.8,1.4c-0.6,1.3-0.6,2.7-0.8,4.1c-0.1,1.1-0.2,2.7-1.2,3.4c-1.1,0.7-2.4,1.4-3.6,1.9
		c-1.7,0.7-3.5,1.4-5.3,2c-0.3,0.1-0.6,0-0.8-0.3c-0.2-0.3-0.8-1.6-0.6-1.9c0.3-0.3,1.2,0.2,1.4-0.4c0.4-1.5,0.5-3.5,0.6-4.5
		c0-1.1,0-2.2-0.1-3.3c-0.1-0.8-0.2-1.7-0.5-2.4c-0.1-0.2,0-0.4,0-0.5C18,97,18.2,96.9,18.4,96.9z"/>
	<path class="st10" d="M18.5,97.5c0.9,2.7,1,10.5-0.8,12.4c0,0,6.1-2,8.7-3.8c1.4-0.9,0.5-4.3,1.7-7.2c1.1-2.7,4.4-4.9,4.4-4.9
		S24.1,96.1,18.5,97.5z"/>
	<path class="st12" d="M18.5,97.5c0.1,0.3,0.2,0.7,0.3,1.2c3.8-1.1,10.7-3.5,11.8-4.1c0.1-0.1,0.2-0.2,0.3-0.2
		C28.2,95.1,22.6,96.5,18.5,97.5z"/>
	<path class="st11" d="M19.1,105c-0.2,2.1-0.6,4.1-1.4,4.9c0,0,5.8-1.9,8.5-3.6c0.5-2.2,0.7-4.8-0.3-3.6
		C24.6,104.2,21.7,105,19.1,105z"/>
	<g>
		<path class="st0" d="M17.3,102.3c0.8,0.8,0.9,2.2,0.2,3.2c-0.7,0.9-1.9,1-2.7,0.2c-0.8-0.8-0.9-2.2-0.2-3.2
			C15.3,101.6,16.5,101.5,17.3,102.3z"/>
		<path class="st3" d="M17,102.7c-0.6-0.6-1.5-0.6-2.1,0.1c-0.5,0.7-0.5,1.8,0.1,2.4c0.6,0.6,1.5,0.6,2.1-0.1
			C17.7,104.4,17.6,103.4,17,102.7z"/>
		<path class="st0" d="M17.2,103.9c0,0.7-0.4,1.4-1.1,1.4c-0.6,0-1.2-0.5-1.2-1.3c0-0.7,0.4-1.4,1.1-1.4
			C16.6,102.6,17.2,103.2,17.2,103.9z"/>
		<path class="st3" d="M17,103.9c0-0.6-0.5-1-1-1c-0.5,0-0.9,0.5-0.9,1.1c0,0.6,0.5,1,1,1C16.6,105,17,104.5,17,103.9z"/>
		<path class="st0" d="M17,103.9c0-0.1,0-0.1,0-0.2l-1.8,0.1c0,0.1,0,0.1,0,0.2c0,0.1,0,0.1,0,0.2l1.8-0.1C17,104.1,17,104,17,103.9
			z"/>
	</g>
	<path class="st0" d="M27.7,124.9c-0.3,0.3-2.1-1.2-2.3-1.5c-1-1-1.9-2.3-2.6-3.5c-0.8-1.5-1.1-3.5-1.2-5.2c-0.1-2.3,0.1-4.8,0.6-7
		c1.1-5.2,3.7-10.5,7.8-13.9c0.7-0.6,1.6-0.8,2.4-0.7c0.4,0,0.9,0.1,1.2,0.3c0.2,0.1,0.4,0.3,0.4,0.5c0,0.2,0,0.5-0.2,0.6
		c-2.1,2-3.8,4.5-4.2,7.4c-0.1,0.9-0.1,1.8,0,2.7c0.1,0.7,0.2,1.4,0.2,2c0,0.5-0.4,0.9-0.7,1.2c-0.4,0.5-0.8,1-1.1,1.5
		c-1.2,2.2-1.3,4.9-1.1,7.4c0.2,1.8,0.3,3.7,0.5,5.5C27.6,122.7,27.8,124.5,27.7,124.9z"/>
	<path class="st13" d="M33.5,94c-6.1,5.9-4.3,10.6-4.3,12.6c0,0.6-3.6,2.5-2.9,10.2c0.6,7.3,0.8,7.2,0.8,7.2s-1.8-0.9-3.7-4.4
		c-2.5-4.5-1.2-18.4,7.1-25.3C31.8,93.3,33.5,94,33.5,94z"/>
	<path class="st0" d="M44.8,124.6c-0.1,0-0.2,0-0.3,0c-0.6-0.1-0.8-0.8-0.9-1.3c-0.1-0.6-0.1-1.3-0.2-1.9c-0.2-2.1-0.3-4.1-0.6-6.2
		c-0.3-2.1-1.1-5.8-3-7.1c-0.1,0-0.1-0.1-0.2-0.2c-0.2-0.3-0.1-0.7,0.1-0.9c0.1-0.1,0.1-0.1,0.2-0.2c0.2-0.2,0.4-0.4,0.6-0.5
		c0.7-0.7,1.3-1.4,1.9-2.2c2.1-2.9,3.4-6.4,4.1-9.9c0.1-0.3,0-0.7,0.3-0.7c0.5,0,1.3,0.2,1.7,0.3c0.9,0.2,2.4,0.9,2.4,2
		c0,0.1,0,0.2,0,0.4c-0.2,0.8-0.4,1.7-0.6,2.5c-0.5,2.5-1.1,6.6,1,8.6c0.7,0.7,1.5,1.2,2.4,1.5c0.3,0.1,0.5,0.2,0.8,0.3
		c0.4,0.1,0.7,0.4,0.7,0.8c0.4,3.4,0.7,6.9,0.8,10.4c0,0.4,0,0.7-0.2,1c-0.8,1.9-3.7,2.6-5.5,3c-1.3,0.2-2.6,0.3-3.9,0.4
		C46,124.6,45.4,124.6,44.8,124.6z"/>
	<path class="st13" d="M47.3,94.2c0,0.2-0.1,0.5-0.1,0.7c-2,9.2-7,12.6-6.9,12.7c4.5,3.1,3.4,17,4.4,16.4c0,0,11,0.1,10.8-3.7
		c-0.1-2.8-0.3-5.8-0.8-10.3c0-0.3-1.7-0.3-3.7-2.2c-2.6-2.4-1.7-7.5-0.6-11.7C50.6,95.1,48.6,94.2,47.3,94.2z"/>
	<path class="st2" d="M31.4,111.2c-3.8-5.6,4.2-10.6,7.6-5.3C42.1,110.7,35.5,116.1,31.4,111.2L31.4,111.2z M34.2,109.8
		c-0.2,0.1-1.9,1-1.8,1.1c0,0,0.6,0.9,2.1,1.2c0-0.6,0.2-1.9,0.1-2.4L34.2,109.8L34.2,109.8z M34.6,104.7c-1.8,0.3-3,1.6-3.2,3.5
		c0,0-0.1,0.8,0.4,1.8c1-0.5,1.9-1.1,2.9-1.6c0-0.9,0.2-2.8,0.1-3.6L34.6,104.7L34.6,104.7z M36,108.7c0.7,0.6,1.4,1.3,2.2,1.9
		c1.5-2.3,0.4-5.2-2.4-5.8c0,0.6-0.2,3.3-0.1,3.6L36,108.7L36,108.7z M35.7,112.1c0.8-0.1,1.2-0.3,1.9-0.8c-0.7-0.6-1.3-1.1-2-1.7
		c0,0.7-0.2,1.8-0.1,2.5L35.7,112.1z"/>
	<path class="st0" d="M35.3,92.1c-0.1,0.2,0,0.7,0,0.9c0.2,0.3,1,0.6,1.3,0.8c0.9,0.4,1.9,0.5,2.9,0.6c0.4,0,0.9,0,1.3,0
		c0.6-0.1,2-0.3,2.3-0.9c0,0,0-0.1,0-0.2c0-0.2,0-0.3,0-0.5c0-0.1,0-0.2,0-0.3c0-0.4,0.3-0.8,0.8-0.8c0.8-0.1,1.5,0.2,2.1,0.7
		c0.7,0.6,1,1.6,0.9,2.5c-0.1,1-0.7,1.9-1.5,2.6c-1.6,1.2-3.8,1.7-5.8,1.7c-1.6,0-3.4-0.2-4.9-0.8c-1.3-0.5-2.6-1.4-3.1-2.8
		c-0.1-0.4-0.1-0.7-0.1-1.1c0.2-1.9,0.7-3.2,2.8-3.6c0.3-0.1,0.8-0.1,1,0.2C35.7,91.3,35.5,91.8,35.3,92.1L35.3,92.1z M35.3,92.1"/>
	<path class="st0" d="M52,71.4c-3.5,7.8-8.4,16.6-8,24.3c0.2,3.1-6.1,3.2-8.4,2.3c-4.6-1.9,3-15.3,8-21.6c1.4-1.8,2.8-2.9,3.4-3.2
		C49.2,72.3,52,71.8,52,71.4z"/>
	<path class="st0" d="M50.6,72.8c-0.9,0.2-1.7,0.5-2.6,0.8c-0.3,0.1-0.5,0.2-0.8,0.3c-0.4,0.2-0.9,0.6-1.2,0.9
		c-0.7,0.6-1.4,1.3-1.9,2.1c-1.8,2.3-3.5,4.9-5,7.4c-0.8,1.3-1.5,2.7-2.2,4.1c-0.6,1.2-1.1,2.5-1.5,3.8c-0.4,1.2-1,3.7-0.1,4.8
		c0.1,0.2,0.3,0.3,0.5,0.4c1,0.4,2.5,0.5,3.6,0.5c1.1-0.1,3.9-0.4,3.8-2c-0.1-2.9,0.4-5.7,1.2-8.5c0.9-2.9,2.1-5.8,3.3-8.6
		C48.8,76.7,49.7,74.8,50.6,72.8z"/>
	<path class="st3" d="M34.6,91.6c-1.6,0.3-1.9,1.3-2.1,2.8c-0.3,3.7,8.6,5.2,12.5,2.3c2.1-1.6,1.2-4.4-0.9-4.2c-0.1,0,0,0.8-0.2,1.2
		c-0.5,1.2-2.8,1.5-4.4,1.4c-2.6-0.1-4.8-1.2-5-1.9C34.3,92.1,34.6,91.6,34.6,91.6z"/>
	<path class="st0" d="M43.2,57.1c5.8,0,10.5,4.7,10.5,10.5c0,5.8-4.7,10.5-10.5,10.5c-5.8,0-10.5-4.7-10.5-10.5
		C32.7,61.8,37.4,57.1,43.2,57.1z"/>
	<path class="st4" d="M43.2,58c-5.3,0-9.6,4.3-9.6,9.6c0,5.3,4.3,9.6,9.6,9.6c5.3,0,9.6-4.3,9.6-9.6C52.9,62.3,48.6,58,43.2,58z"/>
	<path class="st3" d="M43.2,58c-4.6,0-8.5,3.2-9.4,7.6c0.7,4.7,4.7,8.2,9.5,8.2c4.6,0,8.5-3.2,9.4-7.6C52.1,61.6,48.1,58,43.2,58z"
		/>
	<path class="st0" d="M35.4,61.4c-1.5,1.7-2.1,4.9-2.1,6.2c0,1.3,0.3,0.4,0.3,0.6c2.1-2.1,2.8-1.5,3.7-0.9c1,0.6,1.2,2.6,4,3
		c2.8,0.4,6.4-3.9,4.4-6.1c-1.6-1.7-5.9-3.2-9.1-3.1C36.4,61.2,35.6,61.4,35.4,61.4z"/>
	<path class="st3" d="M43.1,78.2c0.6,0,1.4,0.1,2.3,0.3c0.7,0.2,1.5,0.4,2.2,0.8c-0.1,0.2-0.2,0.3-0.2,0.5c-0.6-0.4-1.4-0.6-2.1-0.8
		c-1-0.2-1.9-0.3-2.5-0.3C42.9,78.5,43,78.4,43.1,78.2L43.1,78.2z M41.2,81c-0.1,0.2-0.3,0.4-0.4,0.6c0.7-0.1,1.5,0,2.4,0.2
		c0.9,0.2,1.9,0.6,2.8,1.2c0.1-0.2,0.1-0.4,0.2-0.5c-1-0.6-2-1-2.9-1.3C42.6,81,41.9,80.9,41.2,81L41.2,81z M39,84.5
		c-0.1,0.2-0.2,0.4-0.3,0.6c1.1,0,2.2,0.1,3.2,0.4c1,0.2,1.9,0.5,2.9,1c0.1-0.2,0.1-0.4,0.2-0.5c-1-0.4-1.9-0.8-2.9-1
		C41.1,84.7,40.1,84.5,39,84.5L39,84.5z M37.2,88c-0.1,0.1-0.1,0.2-0.2,0.3c0,0.1-0.1,0.1-0.1,0.2c0.6,0.2,1.4,0.4,2.3,0.5
		c1.6,0.3,3.5,0.6,4.7,0.7c0-0.2,0.1-0.4,0.1-0.6c-1.1-0.1-3.1-0.4-4.7-0.7C38.4,88.4,37.7,88.2,37.2,88L37.2,88z M35.7,91.4
		c-0.1,0.2-0.1,0.4-0.2,0.5c0.8,0.5,2.1,0.8,3.4,1c1.6,0.2,3.2,0.2,4.4-0.1c0-0.2,0-0.4,0.1-0.6c-1.1,0.3-2.8,0.3-4.4,0.1
		C37.7,92.2,36.5,91.8,35.7,91.4z"/>
	<path class="st3" d="M43.2,65.3c-0.9,0-1.6,0.7-1.6,1.6c0,0.9,0.7,1.6,1.6,1.6c0.9,0,1.6-0.7,1.6-1.6C44.8,66,44.1,65.3,43.2,65.3z
		"/>
	<path class="st0" d="M43.1,72c0.3,0.1,1,0.1,1.3,0.1c0.8,0.1,2.1,0.1,2.4,1c0.1,0.2,0,0.5,0,0.7c-0.4,0.9-1.8,1.6-2.7,2
		c-1.4,0.7-2.9,1.2-4.4,1.7c-1,0.3-2,0.6-3,0.9c-2.4,0.7-4.8,1.3-7.4,1c-0.7-0.1-1.6-0.4-1.8-1.2c-0.2-0.7,0.1-1.4,0.6-1.9
		c0.5-0.6,1.2-1.2,1.8-1.7c1.2-1,2.9-2.5,3.6-3.9c0.4-0.8,0.9-1.7,1.5-2.3c0.5-0.6,1.2-1,2-0.9c1.3,0.1,1.9,1.6,2.3,2.7
		C39.6,71.6,41.9,71.3,43.1,72z"/>
	<path class="st5" d="M38.3,70.4c0.6,2.1,3.3,1.8,4.4,2.4c0.5,0.3,3.5,0.1,3.2,0.7c-0.5,1.2-5.7,3.1-9.5,4.2c-2.3,0.7-4.6,1.3-7,0.9
		c-2-0.3-1.3-1.5,0.9-3.3c2.3-1.9,3.3-3.1,3.8-4.2C35.6,67.9,37.4,67.1,38.3,70.4z"/>
	<path class="st0" d="M43.3,72.8c-0.1,0.4-0.5,0.8-0.9,1.1c-0.6,0.4-1.3,0.8-1.9,1.2c-1.9,1-4,1.9-6,2.7c-2.1,0.8-4.7,1.6-6.9,1.8
		c-1,0.1-3.1,0.2-3.5-1.1c-0.3-1,0.6-1.9,1.2-2.5c0.8-0.8,1.7-1.5,2.6-2.2c0.2-0.2,0.4-0.3,0.6-0.5c1-0.8,3.8-3.1,4.4-4.3
		c0.4-0.7,0.8-1.5,1.4-2.1c0.5-0.5,1.2-0.8,1.9-0.7c0.4,0,0.7,0.2,1,0.4c0.6,0.4,1.1,0.8,1.6,1.3c0.4,0.4,0.7,0.8,1.1,1.1
		c0.4,0.4,0.9,0.6,1.4,0.7c0.9,0.2,2,0,2.9-0.1c0.6-0.1,1.4-0.2,1.7,0.5c0.2,0.6-0.2,1.1-0.6,1.4c-0.3,0.3-0.7,0.5-1,0.7
		c-0.2,0.2-0.5,0.3-0.7,0.5C43.5,72.7,43.4,72.8,43.3,72.8z"/>
	<path class="st9" d="M42.2,73c-1.6,1.4-10,5.4-14.7,5.7c-5.3,0.4-1.6-2.3,1.5-4.8c2.3-1.9,4.1-3.6,4.6-4.6c1-2.1,2.2-2.7,3.2-2.1
		c2.5,1.7,2.5,4,7.6,3.1C46.5,69.9,42.8,72.4,42.2,73z"/>
	<path class="st0" d="M45.1,69.3c1.4,0,2.5,1.1,2.5,2.5c0,1.4-1.1,2.5-2.5,2.5c-1.4,0-2.5-1.1-2.5-2.5
		C42.6,70.4,43.7,69.3,45.1,69.3z"/>
	<g>
		<path class="st3" d="M45.1,69.9c-1.1,0-1.9,0.9-1.9,1.9c0,1.1,0.9,1.9,1.9,1.9c1.1,0,1.9-0.9,1.9-1.9C47,70.8,46.2,69.9,45.1,69.9
			z"/>
		<path class="st0" d="M46.2,70.8c0.6,0.6,0.6,1.5,0,2.1c-0.6,0.6-1.5,0.6-2.1,0c-0.6-0.6-0.6-1.5,0-2.1
			C44.6,70.2,45.6,70.2,46.2,70.8z"/>
		<path class="st3" d="M46,71c-0.5-0.5-1.2-0.5-1.7,0c-0.5,0.5-0.5,1.2,0,1.7c0.5,0.5,1.2,0.5,1.7,0C46.4,72.2,46.4,71.4,46,71z"/>
		<path class="st0" d="M46,71c-0.1-0.1-0.1-0.1-0.2-0.1l-1.7,1.7c0,0.1,0.1,0.1,0.1,0.2c0.1,0.1,0.1,0.1,0.2,0.1l1.7-1.7
			C46.1,71.1,46,71,46,71z"/>
	</g>
	<path class="st0" d="M43.8,65.8c-0.4,0-0.7,0.3-0.7,0.7c0,0.4,0.3,0.7,0.7,0.7c0.4,0,0.7-0.3,0.7-0.7
		C44.5,66.1,44.2,65.8,43.8,65.8z"/>
	<path class="st3" d="M35.3,64.3c-0.3-0.1-0.8,0.3-1,1c-0.2,0.6-0.1,1.3,0.2,1.4c0.3,0.1,0.8-0.3,1-1C35.8,65.1,35.7,64.5,35.3,64.3
		z"/>
	<path class="st0" d="M35.4,64.8c-0.1,0-0.3,0.1-0.4,0.4c-0.1,0.3,0,0.5,0.1,0.6c0.1,0,0.3-0.1,0.4-0.4
		C35.6,65.1,35.6,64.9,35.4,64.8z"/>
	<path class="st2" d="M36.1,68.8c-1.5,2.8-2.2,3.1-4.8,4.9c-1.7,1.2-3.5,2.6-5.4,3.5c1.2-1.8,2.9-3.1,4.5-4.5c2-1.8,2.8-2.1,3.8-4.6
		c0.2-0.5,0.8-0.7,1.3-0.5C36.1,67.7,36.3,68.3,36.1,68.8z"/>
	<path class="st8" d="M34.5,92.6c-0.3,2.7,7,3.5,9.2,1.9l0.2-0.1c-1,2.3-10.5,2.3-10.3-1.9c0-0.3,0.3-0.4,0.5-0.4
		C34.4,92.1,34.5,92.3,34.5,92.6z"/>
	<path class="st0" d="M34,94.3c0.3,0,0.5,0.3,0.5,0.6c0,0.3-0.3,0.5-0.6,0.5c-0.3,0-0.5-0.3-0.5-0.6C33.4,94.5,33.7,94.3,34,94.3
		L34,94.3z M45,94.7c0.3,0,0.5,0.3,0.5,0.6c0,0.3-0.3,0.5-0.6,0.5c-0.3,0-0.5-0.3-0.5-0.6C44.4,95,44.7,94.7,45,94.7L45,94.7z
		 M43,95.9c0.3,0,0.5,0.3,0.5,0.6c0,0.3-0.3,0.5-0.6,0.5c-0.3,0-0.5-0.3-0.5-0.6C42.5,96.1,42.7,95.9,43,95.9L43,95.9z M40.6,96.4
		c0.3,0,0.5,0.3,0.5,0.6c0,0.3-0.3,0.5-0.6,0.5c-0.3,0-0.5-0.3-0.5-0.6C40.1,96.6,40.3,96.4,40.6,96.4L40.6,96.4z M38.1,96.2
		c0.3,0,0.5,0.3,0.5,0.6c0,0.3-0.3,0.5-0.6,0.5c-0.3,0-0.5-0.3-0.5-0.6C37.5,96.4,37.8,96.2,38.1,96.2L38.1,96.2z M35.8,95.4
		c0.3,0,0.5,0.3,0.5,0.6c0,0.3-0.3,0.5-0.6,0.5c-0.3,0-0.5-0.3-0.5-0.6C35.2,95.7,35.5,95.4,35.8,95.4z"/>
	<path class="st0" d="M54.5,110.3c-0.1-0.2-0.6-0.7-0.8-0.9c-0.5-0.5-1.1-1.1-1.6-1.6c-0.7-0.7-1.7-5.4-1.9-7.8
		c-0.5-1-0.7,1.5-0.6,0.4c0.1-1.4,1.4-4.1,0.9-5.4c0.9-0.2,2.8,0.3,3.8,0.5c2.5,0.7,5.1,2.6,6.8,4.1c0.7,0.6,5.7,6,5.5,6.6
		c-0.1,0.5-0.6,0.6-1.2,1.1c-0.4,0.4-0.2-0.5-0.5-0.6c-3.6-0.8-6.8,2.2-9.4,4.1c-0.2,0.1-0.4,0.2-0.7,0.1
		C54.6,110.7,54.5,110.6,54.5,110.3z"/>
	<path class="st10" d="M55.1,110.2c2.1-2.1,7.1-4.9,10-4c1.2,0.4-0.3-1.2-1.6-2.9c-2.1-2.6-5.4-6-9.3-7c-0.9-0.2-2.6-0.6-3-0.4
		c-0.2,0.1-0.4,1.3-0.6,2.5c-0.5,2.3-0.4,5.6,0,6.4C51.3,106.4,55,109.4,55.1,110.2z"/>
	<g>
		<path class="st0" d="M32.8,144.6c0-0.1,0-0.2,0.1-0.3c0.7-2.6,3.1-3.5,5.1-1.9c1.1,0.9,1.7,2.4,1.9,3.8c0.3,1.5,0.3,3.4,0.1,4.9
			c-0.1,0.5-0.4,0.8-0.9,0.8H17.3c-0.3,0-0.5-0.1-0.7-0.4c-0.2-0.2-0.2-0.5-0.2-0.8c0.2-0.6,0.3-1.3,0.5-1.9
			c0.7-2.6,3.3-3.8,5.7-4.4c1.4-0.4,3.3-0.3,4.7-0.2C28.9,144.4,31.2,144.4,32.8,144.6z"/>
		<path class="st3" d="M33.7,144.6c-0.3,1-0.3,1-0.3,1s-1.5,0-2.5-0.1c-2.3-0.2-6.3-0.6-8.1-0.1c-2.6,0.7-4.5,1.8-5,3.8
			c-0.5,1.9-0.5,1.9-0.5,1.9h21.9C40,143.7,35,139.7,33.7,144.6z"/>
		<path class="st0" d="M27,144.3c1.2,0.4,2.4,0.8,3.4,1.6c1.5,1.2,2.1,2.9,2.4,4.8c0,0.1,0,0.3,0,0.4c0,0.5-0.4,0.9-0.9,0.9H17.3
			c-0.3,0-0.5-0.1-0.7-0.4c-0.2-0.2-0.2-0.5-0.2-0.8c0.2-0.6,0.3-1.3,0.5-1.9c0.7-2.6,3.3-3.8,5.7-4.4c1.2-0.3,2.8-0.3,4.1-0.3
			C26.8,144.3,26.9,144.3,27,144.3z"/>
		<path class="st9" d="M26.7,145.2c-1.5,0-2.9,0-3.8,0.2c-2.6,0.7-4.5,1.8-5,3.8c-0.5,1.9-0.5,1.9-0.5,1.9h14.6c0-0.1,0-0.1,0-0.2
			C31.3,147,29.4,146.1,26.7,145.2z"/>
		<path class="st5" d="M25.5,151.1h6.4c0-0.1,0-0.1,0-0.2c-0.1-0.9-0.3-1.7-0.6-2.3c-0.9-0.2-2-0.1-3,0.2c-1.1,0.4-2.1,1-2.7,2.1
			C25.5,151,25.5,151,25.5,151.1z"/>
		<path class="st0" d="M50.3,149.7c-0.1-0.6-0.2-1.1-0.4-1.7c-0.1-0.6-0.3-1.4,0.2-1.9c0.3-0.4,0.7-0.5,1.2-0.5c1,0,1.4,1.4,1.6,2.2
			c0.1,0.3,0.2,0.6,0.2,0.9l0.4-0.1l-0.5-2.3c0-0.2,0-0.3,0-0.5c0.1-0.3,0.4-0.6,0.7-0.7c0.7-0.3,1.2,0.2,1.6,0.7
			c0.5,0.7,0.7,2,0.7,3c2,1.5,3.9,3.1,5.7,4.8c1.9,1.8,5.4,5.5,4.5,8.4c-0.4,1.4-1.6,2.1-2.9,2.6c-1.9,0.7-3.9,0.8-5.8-0.1
			c-2.4-1.1-4.3-3.7-6.1-5.7c0,0-0.1-0.1-0.1-0.1c-0.4-0.7-1-1.5-1.5-2.2c-0.6-1-1.5-2.5-1.2-3.7C49,151.7,49.5,150.6,50.3,149.7z"
			/>
		<path class="st3" d="M51.2,150c-1,1-1.5,2.3-1.6,3.1c-0.3,1.4,1.8,3.9,2.6,5.3c3.3,3.6,5.5,7.4,11,5.6c7.7-2.6-4.6-12.2-7.8-14.6
			c0,0-0.1-2.2-0.6-3c-0.5-0.8-0.7-0.2-0.7-0.2l0.6,3.1l-2.1,0.5c0,0-0.7-3.3-1.2-3.3C50.1,146.5,50.9,147.8,51.2,150z"/>
		<path class="st0" d="M61.7,153.6c1.9,1.3,3.7,3.1,4.6,5.2c0.6,1.6,0.6,3.3-0.4,4.7c-0.6,0.8-1.5,1.4-2.5,1.7
			c-1.9,0.5-3.8,0.3-5.6-0.4c-2.9-1.2-5.1-3.8-6.8-6.4c-0.2-0.3-0.2-0.7,0.1-1c2.6-3,6.3-5,10.3-3.9
			C61.6,153.5,61.6,153.6,61.7,153.6z"/>
		<path class="st5" d="M51.8,157.9c4.5,6.8,8.8,7.2,11.4,6.4c3.5-1,4.1-5.8-2-10.1C57.6,153.3,54.2,155.1,51.8,157.9z"/>
		<path class="st0" d="M23.3,151.3c0.1-0.6,0.3-1.1,0.5-1.6c0.7-1.3,1.9-2.1,3.1-2.5c1.2-0.4,2.6-0.4,3.5-0.2
			c0.5,0.1,0.9,0.3,1.2,0.4l-0.4,0.8c-0.2-0.1-0.5-0.3-0.9-0.3c-0.9-0.2-2.1-0.2-3.2,0.2c-1.1,0.4-2.1,1-2.7,2.1
			c-0.2,0.4-0.3,0.8-0.4,1.3L23.3,151.3z"/>
		<path class="st0" d="M18.7,151.4c0-0.1,0-0.3,0-0.4c0.2-1.6,1.2-3.1,2.9-4.2c1.6-1,3.9-1.7,6.6-1.5c0.5,0,0.9,0.1,1.4,0.1
			l-0.1,0.9c-0.5-0.1-0.9-0.1-1.3-0.1c-2.6-0.1-4.6,0.5-6.1,1.4c-1.4,0.9-2.3,2.2-2.4,3.5c0,0.1,0,0.2,0,0.3L18.7,151.4z"/>
		<path class="st0" d="M59.4,164.5c0.5-1.4,0.1-2.9-0.6-4.3c-1.2-2.3-3.2-4.3-4-4.9l0.4-0.7c0.9,0.6,3.1,2.7,4.3,5.2
			c0.8,1.6,1.2,3.4,0.7,5L59.4,164.5z"/>
		<path class="st0" d="M63.5,164.3c0.5-1.7,0.1-3.5-0.7-5.1c-1.2-2.5-3.7-4.9-4.7-5.3l0.6-0.4c1.1,0.5,3.4,2.7,4.8,5.4
			c0.9,1.8,1.4,3.8,0.7,5.7L63.5,164.3z"/>
		<path class="st0" d="M38.3,147.3c0.1,1.3-0.8,2.5-2.1,2.6c-1.3,0.1-2.5-0.8-2.6-2.1c-0.1-1.3,0.8-2.5,2.1-2.6
			C37,145.1,38.2,146,38.3,147.3z"/>
		<path class="st3" d="M37.8,147.4c-0.1-1-1-1.7-2-1.6c-1,0.1-1.7,1-1.6,2c0.1,1,1,1.7,2,1.6C37.2,149.3,37.9,148.4,37.8,147.4z"/>
		<path class="st0" d="M37.1,148.5c-0.5,0.6-1.4,0.7-2,0.2c-0.6-0.5-0.7-1.4-0.2-2c0.5-0.6,1.4-0.7,2-0.2
			C37.5,147,37.6,147.8,37.1,148.5z"/>
		<path class="st3" d="M36.9,148.3c0.4-0.5,0.3-1.2-0.2-1.6c-0.5-0.4-1.2-0.3-1.6,0.2s-0.3,1.2,0.2,1.6
			C35.8,148.9,36.5,148.8,36.9,148.3z"/>
		<path class="st0" d="M36.9,148.3c0-0.1,0.1-0.1,0.1-0.2l-1.7-1.4c-0.1,0-0.1,0.1-0.2,0.2c0,0.1-0.1,0.1-0.1,0.2l1.7,1.4
			C36.8,148.4,36.8,148.3,36.9,148.3z"/>
		<path class="st0" d="M52.8,152.6c-0.1,1.4-1,2.3-2.1,2.2c-1.1-0.1-1.9-1.3-1.8-2.7c0.1-1.4,1-2.3,2.1-2.2S52.9,151.2,52.8,152.6z"
			/>
		<path class="st3" d="M52.3,152.5c0.1-1-0.6-1.9-1.4-2c-0.8-0.1-1.5,0.7-1.6,1.7c-0.1,1,0.6,1.9,1.4,2
			C51.6,154.3,52.3,153.5,52.3,152.5z"/>
		<path class="st0" d="M51.3,153.5c-0.5,0.5-1.2,0.4-1.7-0.2c-0.4-0.6-0.4-1.6,0.1-2.1c0.5-0.5,1.2-0.4,1.7,0.2
			C51.9,152,51.8,153,51.3,153.5z"/>
		<path class="st3" d="M51.2,153.2c0.4-0.4,0.4-1.2,0.1-1.7c-0.3-0.5-0.9-0.6-1.3-0.1c-0.4,0.4-0.4,1.2-0.1,1.7
			C50.2,153.6,50.8,153.7,51.2,153.2z"/>
		<path class="st0" d="M51.2,153.2c0-0.1,0.1-0.1,0.1-0.2l-1.2-1.8c-0.1,0-0.1,0.1-0.1,0.1c0,0.1-0.1,0.1-0.1,0.2l1.2,1.8
			C51.1,153.3,51.1,153.3,51.2,153.2z"/>
		<path class="st5" d="M20.8,151.1h2.5c0.1-0.5,0.3-1,0.5-1.4c0.7-1.3,1.9-2.1,3.1-2.5c1-0.3,2.2-0.4,3.1-0.3
			c-0.1,0-0.1-0.1-0.2-0.1c-0.2,0-0.4,0-0.6,0c-2.6-0.1-4.6,0.5-6.1,1.4C21.9,148.9,21.1,149.9,20.8,151.1z"/>
		<path class="st9" d="M58.8,163.2c-0.3-2.2-2.3-4.8-4.9-7.2c-0.7,0.6-1.4,1.2-2.1,2c0,0,0,0,0,0.1c2.5,3.8,4.9,5.5,7,6.3
			c0,0,0,0,0,0C58.9,163.9,58.9,163.5,58.8,163.2z"/>
		<path class="st9" d="M62.9,162.2c-0.2-2.7-2.6-6.2-5-8.1c-0.8,0.1-1.6,0.4-2.3,0.8c1.1,0.8,2.8,2.7,3.9,4.9
			c0.7,1.5,1.2,3.1,0.8,4.6c0,0.1,0,0.1,0,0.2c1,0.1,1.8,0.1,2.6-0.1c0-0.1,0.1-0.3,0.1-0.5C63,163.5,63,163,62.9,162.2z"/>
		<path class="st9" d="M65.1,161.1c-0.2-2.8-2.2-4.6-4.7-6.9c-0.3,0-0.6-0.1-0.8-0.1c1.2,0.9,2.9,2.7,3.9,4.8c0.7,1.4,1.1,2.9,1,4.4
			c0,0.2,0,0.4-0.1,0.5c0.1-0.1,0.3-0.2,0.4-0.3c0.1-0.2,0.1-0.4,0.2-0.6C65.1,162.3,65.2,161.7,65.1,161.1z"/>
		<path class="st9" d="M51.4,145.6c0.6,0,1,0.6,1.2,1.2c-0.4-1.5-0.9-3.7-1.8-6.7l-0.2-0.1l-0.4,0.5l-0.2-0.2
			C50.6,142.5,51.1,144.2,51.4,145.6z"/>
		<path class="st8" d="M34.3,144.8c0.2-0.4,0.4-0.8,0.6-1c0.6-0.7,1.3-0.8,2-0.4c0.4,0.2,0.8,0.5,1.1,0.9c0,0.1,0.1,0.1,0.1,0.2
			c-0.1-0.1-0.1-0.2-0.2-0.3c-0.4-0.6-0.8-1.1-1.2-1.4c-0.8-0.5-1.6-0.6-2.2,0c-0.2,0.2-0.4,0.5-0.6,0.9c-0.1,0.2-0.2,0.5-0.3,0.8
			c-0.3,1-0.3,1-0.3,1s-1.5,0-2.5-0.1c-0.4,0-0.9-0.1-1.5-0.1c0.3,0.2,0.6,0.4,0.9,0.6c0.1,0.1,0.1,0.1,0.2,0.2
			c0.3,0,0.6,0.1,0.8,0.1c1,0.1,2.5,0.1,2.5,0.1s0,0,0.3-1C34.2,145.1,34.3,145,34.3,144.8z"/>
		<path class="st8" d="M60.1,153.2c-1.9-1.7-3.8-3.2-4.8-3.9c0,0-0.1-2.2-0.6-3c-0.1-0.2-0.2-0.3-0.3-0.3c-0.1,0-0.1-0.1-0.2-0.1
			c0.6,3.6,0.6,3.6,0.6,3.6l0.3,0.3l3.9,3.4C59.4,153.2,59.8,153.2,60.1,153.2z"/>
	</g>
	<path class="st0" d="M34.2,62.6c-0.3-0.1-0.5-0.4-0.6-0.7c-0.2-0.6,0.1-1.1,0.4-1.6c0.4-0.5,1.2-0.7,1.6-1.2c0.3-0.3,0.5-0.7,0.8-1
		c0.2-0.2,0.4-0.4,0.7-0.5c2.2-1.2,6.8,0.3,8.9,1.1c1.2,0.4,2.3,1.1,3.4,1.8c1.3,0.8,2.5,1.7,3.7,2.6c0.6,0.5,1.3,1.1,1.4,2
		c0.1,0.5-0.1,1-0.1,1.6c0,0.1,0.1,0.3,0.2,0.4c0.1,0.3,0.3,0.5,0.4,0.8c0.2,0.4,0.3,0.8,0.2,1.3c0,0.3-0.2,0.7-0.4,0.9
		c-0.3,0.4-0.7,0.7-1.2,0.7c-0.3,0-0.6-0.2-0.8-0.5c-0.6-0.8-1.3-1.4-2.1-2c-1.3-1.1-2.8-2.1-4.2-3c-2.4-1.6-5.5-3.1-8.4-3.2
		c-1,0-2.4,0.1-3.3,0.6C34.7,62.7,34.5,62.7,34.2,62.6z"/>
	<path class="st1" d="M34.5,62c0.8-0.4,5-2.3,12.5,2.6c3.8,2.5,5.5,3.8,6.5,5.2c0.4,0.6,1.1-0.3,1.2-0.8c0.1-0.9-0.8-1.8-0.8-2.3
		c-0.1-1.4,0.6-1.7-1.1-3c-1.5-1.2-4.6-3.4-6.9-4.3c-3.2-1.2-6.8-2-8.4-1.1c-0.6,0.3-0.8,1-1.4,1.5c-0.5,0.5-1.4,0.8-1.6,1.1
		C33.9,61.7,34.5,62,34.5,62z"/>
	<path class="st14" d="M34.5,62c0.8-0.4,5-2.3,12.5,2.6c3.8,2.5,5.5,3.8,6.5,5.2c0.4,0.6,1.1-0.3,1.2-0.8c0,0,0-0.1,0-0.1
		c-0.3,0.2-0.7,0.1-1.3-0.5c-2.1-2-4.2-3.3-8.1-5.5c-4-2.2-6.7-2.9-8.6-2.5c-0.9,0.2-1.6,0.4-2.1,0.3C33.9,61.7,34.5,62,34.5,62z"/>
	<path class="st0" d="M54.3,69.7c0-1.8-0.1-2.2-1.3-3.6c-0.4-0.5-0.8-0.6-1.2-1.2c0.4,0.2,1.2,0.6,1.5,1c1.5,1.4,1.6,1.9,1.7,3.8
		c0,0.2-0.2,0.4-0.4,0.4C54.4,70.1,54.3,69.9,54.3,69.7z"/>
	<path class="st0" d="M34.8,59.8c1.3-0.6,1.6-0.6,3.4-0.3c-1.6,0.3-1.9,0.2-3.3,1c-0.2,0.1-0.4,0-0.5-0.1
		C34.3,60.2,34.7,59.9,34.8,59.8z"/>
	<path class="st2" d="M52.2,63.2c-0.1,0.4,0.1,0.9,0.7,1.3c0.4,0.2,0.7,0.3,1,0.3c0.1,0.2,0.1,0.3,0.1,0.5c-1.5,0.4-2.5-1.2-2.2-2.5
		C51.9,62.9,52,63.1,52.2,63.2L52.2,63.2z M38.7,61.3c0.2,0,0.4,0,0.6,0.1c0.6-1,2.2-1.5,2.7,0.3c0,0.1,0,0.3-0.1,0.4
		c0.2,0.1,0.4,0.1,0.6,0.2c0.1-0.5,0.1-1-0.1-1.4C41.4,59.3,39.3,60,38.7,61.3L38.7,61.3z M46,64c0.2,0.1,0.3,0.2,0.5,0.3
		c0.4-1.1,2.1-1.8,2.6,0.2c0,0.5-0.1,1-0.4,1.3c0.2,0.1,0.3,0.2,0.5,0.3c0.5-0.6,0.7-1.6,0.4-2.3C48.8,62,46.5,62.5,46,64L46,64z
		 M47.7,60.2c-0.2-0.1-0.3-0.2-0.5-0.3c-0.4,0.4-1,0.5-1.7,0.1c-0.5-0.3-0.7-0.7-0.7-1.1c-0.2-0.1-0.4-0.1-0.5-0.2
		c0,0.4,0.2,0.9,0.6,1.4l0.4,0.3C46.1,61.2,47.1,60.9,47.7,60.2L47.7,60.2z M41.1,58c-0.4,0.9-1.5,1.6-3.1,0.8
		c-0.2-0.2-0.3-0.4-0.4-0.5c0,0,0,0,0,0c0.1-0.1,0.3-0.1,0.5-0.2c0.1,0.1,0.3,0.3,0.5,0.4c0.8,0.4,1.6,0.2,1.9-0.5
		C40.7,58,40.9,58,41.1,58z"/>
	<path class="st0" d="M52.3,63.2c0,0.2,0,0.4,0.1,0.7c0.1,0.2,0.3,0.4,0.5,0.6c0.2,0.1,0.3,0.2,0.5,0.2c0.2,0,0.3,0.1,0.4,0l0.1,0
		l0,0.1c0,0.1,0.1,0.2,0.1,0.3c0,0.1,0,0.2,0,0.3l0,0.1l-0.1,0c-0.3,0.1-0.5,0.1-0.7,0c-0.4-0.1-0.7-0.3-1-0.6
		c-0.3-0.3-0.4-0.7-0.5-1c-0.1-0.3-0.1-0.7,0-1l0-0.1l0.1,0.1c0.1,0.1,0.2,0.1,0.2,0.2C52.1,63,52.2,63.1,52.3,63.2L52.3,63.2
		L52.3,63.2L52.3,63.2z M52.2,63.9c-0.1-0.2-0.1-0.5-0.1-0.7c-0.1-0.1-0.1-0.1-0.2-0.1L51.8,63c0,0.3,0,0.5,0.1,0.8
		c0.1,0.4,0.3,0.7,0.5,1c0.2,0.3,0.5,0.5,0.9,0.5c0.2,0,0.4,0,0.6,0c0-0.1,0-0.1,0-0.2c0-0.1,0-0.1-0.1-0.2c-0.1,0-0.3,0-0.5-0.1
		c-0.2-0.1-0.3-0.1-0.5-0.3C52.5,64.4,52.3,64.2,52.2,63.9L52.2,63.9z M38.8,61.3c0.1,0,0.1,0,0.2,0c0.1,0,0.2,0,0.3,0
		c0.2-0.3,0.4-0.5,0.7-0.7l0,0c0.3-0.1,0.5-0.2,0.8-0.2c0.3,0,0.6,0.1,0.8,0.3c0.2,0.2,0.4,0.5,0.5,0.9l0,0l0,0c0,0.1,0,0.1,0,0.2
		c0,0,0,0.1,0,0.1c0.1,0,0.1,0,0.2,0.1c0.1,0,0.1,0,0.2,0.1c0-0.2,0.1-0.4,0-0.6c0-0.2-0.1-0.4-0.2-0.6c-0.2-0.3-0.5-0.6-0.8-0.7
		c-0.3-0.1-0.6-0.2-0.9-0.1c-0.3,0-0.6,0.1-0.9,0.3C39.3,60.6,39,60.9,38.8,61.3L38.8,61.3z M39,61.4c-0.1,0-0.2,0-0.3,0l-0.1,0
		l0-0.1c0.2-0.4,0.5-0.8,1-1.1c0.3-0.2,0.6-0.3,1-0.3c0.3,0,0.7,0,1,0.1c0.3,0.1,0.6,0.4,0.9,0.8c0.1,0.2,0.2,0.4,0.2,0.7
		c0,0.3,0,0.5-0.1,0.8l0,0.1l-0.1,0c-0.1,0-0.2-0.1-0.3-0.1c-0.1,0-0.2-0.1-0.3-0.1l-0.1,0l0-0.1c0-0.1,0-0.1,0-0.2
		c0-0.1,0-0.1,0-0.2c-0.1-0.4-0.2-0.6-0.4-0.8c-0.2-0.2-0.4-0.3-0.7-0.3c-0.2,0-0.5,0.1-0.7,0.2v0c-0.3,0.2-0.5,0.4-0.7,0.7l0,0
		l-0.1,0C39.2,61.5,39.1,61.5,39,61.4L39,61.4z M46.1,64c0.1,0,0.1,0.1,0.2,0.1l0.2,0.1c0.1-0.3,0.4-0.6,0.7-0.8
		c0.2-0.1,0.5-0.2,0.7-0.2c0.3,0,0.5,0.1,0.7,0.2c0.3,0.2,0.5,0.6,0.7,1.1l0,0v0c0,0.3,0,0.5-0.1,0.8c-0.1,0.2-0.2,0.4-0.3,0.5
		l0.2,0.1l0.2,0.1c0.2-0.3,0.4-0.6,0.4-1c0.1-0.4,0-0.8-0.1-1.1c-0.2-0.6-0.6-0.9-1.1-1c-0.2-0.1-0.4-0.1-0.6-0.1
		c-0.2,0-0.4,0.1-0.6,0.1C46.7,63.1,46.3,63.5,46.1,64L46.1,64z M46.2,64.2c-0.1-0.1-0.2-0.1-0.3-0.2l-0.1,0l0-0.1
		c0.2-0.6,0.6-1,1.2-1.2c0.2-0.1,0.4-0.1,0.7-0.2c0.2,0,0.5,0,0.7,0.1c0.5,0.2,0.9,0.5,1.2,1.1c0.1,0.4,0.2,0.8,0.1,1.2
		c-0.1,0.4-0.2,0.8-0.5,1.1l-0.1,0.1L48.9,66l-0.3-0.2l0.1-0.1c0.1-0.1,0.2-0.3,0.3-0.5c0.1-0.2,0.1-0.5,0.1-0.7
		c-0.1-0.5-0.4-0.8-0.6-1c-0.2-0.1-0.4-0.2-0.6-0.2c-0.2,0-0.4,0.1-0.6,0.2c-0.3,0.2-0.5,0.5-0.6,0.8l0,0.1l-0.1-0.1
		C46.4,64.3,46.3,64.3,46.2,64.2L46.2,64.2z M47.5,60.2c0,0-0.1-0.1-0.2-0.1c-0.1,0-0.1-0.1-0.2-0.1c-0.2,0.2-0.5,0.3-0.7,0.3
		c-0.3,0-0.6-0.1-1-0.3c-0.3-0.2-0.5-0.3-0.6-0.5c-0.1-0.2-0.2-0.4-0.2-0.6c-0.1,0-0.1,0-0.2-0.1l-0.2,0c0,0.2,0.1,0.4,0.1,0.5
		c0.1,0.2,0.2,0.5,0.4,0.7l0.4,0.3c0,0,0,0,0.1,0c0.4,0.3,0.9,0.4,1.3,0.3C46.9,60.7,47.3,60.5,47.5,60.2L47.5,60.2z M47.5,60
		c0.1,0,0.2,0.1,0.2,0.1l0.1,0l-0.1,0.1c0,0,0,0,0,0.1v0c-0.3,0.4-0.7,0.6-1.1,0.7c-0.4,0.1-0.9,0-1.4-0.4c0,0,0,0-0.1,0
		c0,0-0.3-0.3-0.4-0.3l0,0c-0.2-0.3-0.3-0.5-0.4-0.8c-0.1-0.3-0.2-0.5-0.2-0.7l0-0.1l0.1,0c0.1,0,0.2,0.1,0.3,0.1
		c0.1,0,0.2,0.1,0.3,0.1l0.1,0l0,0.1c0,0.2,0,0.4,0.2,0.6c0.1,0.2,0.3,0.3,0.5,0.5c0.3,0.2,0.6,0.3,0.9,0.2c0.3,0,0.5-0.1,0.7-0.3
		l0-0.1l0.1,0C47.3,59.9,47.4,59.9,47.5,60L47.5,60z M40.9,58.1c-0.1,0-0.1,0-0.2,0c-0.1,0-0.2,0-0.2,0c-0.2,0.3-0.5,0.6-0.8,0.6
		c-0.4,0.1-0.8,0-1.2-0.2l0,0c-0.1-0.1-0.2-0.1-0.3-0.2c-0.1-0.1-0.1-0.1-0.2-0.2c-0.1,0-0.1,0-0.2,0.1c-0.1,0-0.1,0-0.2,0.1
		c0,0.1,0.1,0.1,0.1,0.2c0.1,0.1,0.1,0.2,0.2,0.3c0.1,0,0.2,0.1,0.3,0.1c0.6,0.3,1.2,0.3,1.6,0.1C40.4,58.8,40.7,58.5,40.9,58.1
		L40.9,58.1L40.9,58.1z M40.8,57.9c0.1,0,0.2,0,0.3,0l0.1,0l0,0.1c0,0.1,0,0.1-0.1,0.2c-0.2,0.4-0.6,0.8-1.1,0.9
		c-0.5,0.2-1.1,0.2-1.8-0.1c-0.1,0-0.2-0.1-0.3-0.1l0,0l0,0c-0.1-0.1-0.2-0.2-0.3-0.3c-0.1-0.1-0.1-0.2-0.2-0.3l0-0.1
		c0,0,0.1,0,0.1-0.1c0.1,0,0.2-0.1,0.2-0.1c0.1,0,0.2-0.1,0.3-0.1l0.1,0l0,0c0.1,0.1,0.1,0.1,0.2,0.2c0.1,0.1,0.2,0.1,0.3,0.2l0,0
		c0.4,0.2,0.7,0.2,1.1,0.2c0.3-0.1,0.6-0.3,0.8-0.6l0-0.1l0.1,0C40.6,57.9,40.7,57.9,40.8,57.9z"/>
	<path class="st0" d="M43.2,106.5c0.3,0,0.6,0.1,0.7,0.3c0.2,0.2,0.3,0.5,0.3,0.7c0,0.3-0.1,0.6-0.3,0.7c-0.2,0.2-0.5,0.3-0.7,0.3
		c-0.3,0-0.6-0.1-0.7-0.3c-0.2-0.2-0.3-0.5-0.3-0.7c0-0.3,0.1-0.6,0.3-0.7C42.7,106.7,43,106.5,43.2,106.5L43.2,106.5z M43.8,107.1
		c-0.1-0.1-0.3-0.2-0.5-0.2c-0.2,0-0.4,0.1-0.5,0.2c-0.1,0.1-0.2,0.3-0.2,0.5c0,0.2,0.1,0.4,0.2,0.5c0.1,0.1,0.3,0.2,0.5,0.2
		c0.2,0,0.4-0.1,0.5-0.2c0.1-0.1,0.2-0.3,0.2-0.5C44,107.4,43.9,107.2,43.8,107.1z"/>
	<path class="st14" d="M53.7,76.8c0.2,0.1,0.4,0.2,0.6,0.4c0.8,0.4,1.8,0.7,2.8,1.5c-0.7-1.4-1.5-2.1-2.3-2.9
		c-0.2-0.2-0.4-0.4-0.6-0.6c-0.4-0.5-0.9-1-1.3-1.8c-0.1,0.1-0.3,0.1-0.4,0.1c0,0.1,0,0.2,0,0.3c0,0,0,0.1,0,0.1c0,0,0,0,0,0.1
		C52.6,75.5,53,76.3,53.7,76.8z"/>
	<path class="st14" d="M53.4,77.4c-0.1-0.1-0.1-0.1-0.2-0.2c-0.4-0.3-0.7-0.8-0.9-1.2C52.1,77,52,77.9,51.9,79c0,0.2,0,0.3,0,0.5
		C52.4,78.6,52.9,78,53.4,77.4z"/>
	<path class="st0" d="M53.4,109.1c-2.8-3.1-3.8-5.9-2.2-10c-0.8,4.4-0.5,6.3,2.6,9.5c0.1,0.1,0.1,0.3,0,0.5
		C53.8,109.2,53.6,109.2,53.4,109.1z"/>
	<path class="st0" d="M19.3,97.2c0-0.1,0-0.2,0.1-0.2c0.1,0,0.2,0,0.2,0.1c0.5,0.9,1.3,4.3,1.2,7.4c-0.1,2.1-0.5,4.1-1.5,5.3
		c-0.1,0.1-0.2,0.1-0.2,0c-0.1-0.1-0.1-0.2,0-0.2c1-1.2,1.4-3.1,1.4-5.1C20.5,101.3,19.8,98.1,19.3,97.2z"/>
	<path class="st0" d="M55.2,130c-0.5,1.1-0.8,2.2-1.3,3.3c0.1-1.5,0.3-2.2,0.7-3.6c0.1-0.2,0.3-0.2,0.4-0.1
		C55.3,129.7,55.3,129.8,55.2,130z"/>
	<g>
		<g>
			<g>
				
					<ellipse transform="matrix(0.3583 -0.9336 0.9336 0.3583 -72.0291 130.7522)" class="st0" cx="59.1" cy="117.8" rx="22.5" ry="22.5"/>
				
					<ellipse transform="matrix(0.9755 -0.2199 0.2199 0.9755 -24.4524 15.879)" class="st13" cx="59.1" cy="117.8" rx="21.7" ry="21.7"/>
				<path class="st15" d="M59.1,97.7c11.1,0,20.1,9,20.1,20.1c0,11.1-9,20.1-20.1,20.1c-11.1,0-20.1-9-20.1-20.1
					C39,106.7,48,97.7,59.1,97.7z"/>
				<path class="st0" d="M59.1,98.4c10.7,0,19.3,8.7,19.3,19.3c0,10.7-8.7,19.3-19.3,19.3c-10.7,0-19.3-8.7-19.3-19.3
					C39.8,107.1,48.4,98.4,59.1,98.4z"/>
				<path class="st5" d="M59.1,99.3c-10.2,0-18.4,8.2-18.4,18.4c0,10.2,8.3,18.4,18.4,18.4c10.2,0,18.4-8.2,18.4-18.4
					C77.5,107.6,69.3,99.3,59.1,99.3z"/>
				<path class="st9" d="M59.1,99.3c-9.5,0-17.4,7.2-18.3,16.5c1,9.3,8.8,16.5,18.3,16.5c9.5,0,17.4-7.2,18.3-16.5
					C76.5,106.6,68.6,99.3,59.1,99.3z"/>
			</g>
		</g>
	</g>
	<path class="st0" d="M31.8,94.6c0,0,0.1,0,0.1,0c0,0,0,0.1,0,0.1c-0.9,1-1.9,2.6-2.7,4.2c-0.6,1.3-1,2.6-1,3.7v0
		c0,2.6,0.2,3.6,0.2,3.6c0,0,0,0.1,0,0.1c-4.2,4.7-3.1,10.7-1.8,17.1l0.1,0.4c0,0,0,0.1-0.1,0.1c0,0-0.1,0-0.1-0.1l-0.1-0.4
		c-1.3-6.5-2.5-12.5,1.8-17.2c0-0.2-0.2-1.3-0.2-3.6v0c0-1.2,0.4-2.5,1-3.8C29.9,97.2,30.9,95.6,31.8,94.6z"/>
	<path class="st0" d="M47.9,94.2C47.9,94.2,47.9,94.1,47.9,94.2c0.1-0.1,0.2-0.1,0.2,0c0,1.9-1.6,5.8-1.6,5.8c0,0-0.1,0.1-0.1,0
		c0,0-0.1-0.1,0-0.1C46.3,99.9,47.9,96,47.9,94.2z"/>
	<path class="st0" d="M34.4,61c0,0-0.1,0-0.1-0.1c0,0,0-0.1,0.1-0.1c0.7-0.2,1.4-0.3,2.1-0.5c0.7-0.1,1.4-0.2,2.1-0.1
		c0.1,0,0.2,0,0.4,0c0.1,0,0.2,0,0.4,0.1c0,0,0.1,0.1,0.1,0.1c0,0-0.1,0.1-0.1,0.1c-0.1,0-0.2,0-0.3-0.1c-0.1,0-0.2,0-0.3,0
		c-0.7,0-1.4,0-2.1,0.1C35.8,60.7,35.1,60.9,34.4,61L34.4,61z M42.5,61.6c0,0-0.1-0.1,0-0.1c0,0,0.1-0.1,0.1,0
		c0.1,0,0.2,0.1,0.3,0.1c0.1,0,0.2,0.1,0.3,0.1c0.5,0.3,1,0.6,1.5,0.8c0.5,0.3,1,0.5,1.4,0.8c0,0,0.1,0.1,0,0.1c0,0-0.1,0.1-0.1,0
		c-0.5-0.3-1-0.5-1.4-0.8c-0.5-0.3-1-0.6-1.5-0.8c-0.1-0.1-0.2-0.1-0.3-0.1C42.7,61.7,42.6,61.6,42.5,61.6L42.5,61.6z M49.5,65.6
		c0,0-0.1-0.1,0-0.1c0,0,0.1-0.1,0.1,0c0.7,0.4,1.3,0.9,1.8,1.3c0.5,0.4,0.9,0.8,1.3,1.1c1.8,1.7,1.6,2.6,1.6,2.6
		c0,0-0.1,0.1-0.1,0.1c0,0-0.1-0.1-0.1-0.1c0,0,0.2-0.8-1.5-2.4c-0.3-0.3-0.8-0.7-1.3-1.1C50.8,66.5,50.2,66,49.5,65.6z"/>
	<path class="st16" d="M31,133.7c0.1,0.5,0.1,1,0.2,1.4c0.1,0.6,0.2,1.1,0.3,1.6l0.3-0.5l0.2-0.3l0.9,0.7l0.1,0.1l0.7-0.8l0.9,0.6
		l0.6-0.8l0,0l0.9,0.6l0-0.1l0.2-0.8l1.1,0.4c0,0-0.1-0.1-0.4-1.4l0,0l0-0.1c0,0,0-0.1,0-0.1l-0.1-0.6l-0.1-0.7l0-0.2
		c-0.3-0.1-0.7-0.2-1-0.4c-0.2-0.1-0.4-0.2-0.6-0.2c-0.3-0.1-0.7-0.3-1-0.5c-0.7-0.4-1.4-0.8-2.1-1.3c-0.5-0.4-1-0.8-1.4-1.2
		c0,0-0.1-0.1-0.1-0.1c0,0.3,0,0.6,0.1,0.9c0,0.3,0.1,0.6,0.1,0.9c0.1,0.8,0.2,1.6,0.3,2.4C31,133.5,31,133.6,31,133.7z"/>
	<path class="st17" d="M59.1,100.4c-5.4,0-9.7,2.2-9.7,5c0,2.7,4.4,5,9.7,5c5.4,0,9.7-2.2,9.7-5C68.8,102.6,64.5,100.4,59.1,100.4z"
		/>
</g>
<g>
	<path class="st18" d="M134.6,114.4c0,4.3-2.1,6.5-6.4,6.5h-16.9v25.3h-10.5V76.4h27.4c4.3,0,6.4,2.1,6.4,6.4V114.4z M124.1,112
		V85.3h-12.8V112H124.1z"/>
	<path class="st18" d="M170,120h-10.1v-10.3l-8.1,0.2v36.4h-10.2v-45.1h10.2v1.7c2.1-0.4,4.2-0.8,6.3-1.2c2.5-0.4,4.6-0.7,6.3-0.7
		c3.7,0,5.6,1.8,5.6,5.5V120z"/>
	<path class="st18" d="M205.5,140.7c0,3.7-1.9,5.6-5.7,5.6h-18.3c-3.8,0-5.8-1.9-5.8-5.6v-34c0-3.7,1.9-5.6,5.8-5.6h18.3
		c3.8,0,5.7,1.9,5.7,5.6V140.7z M195.5,137.8v-28.1h-9.7v28.1H195.5z"/>
	<path class="st18" d="M232.3,146.3H221c-3.8,0-5.7-1.9-5.7-5.6v-30.8h-4.8v-8.7h4.8V88.9h10.2v12.2h6.6v8.7h-6.6v27.7h6.8V146.3z"
		/>
	<path class="st18" d="M267.8,140.7c0,3.7-1.9,5.6-5.7,5.6h-18.3c-3.8,0-5.8-1.9-5.8-5.6v-34c0-3.7,1.9-5.6,5.8-5.6h18.3
		c3.8,0,5.7,1.9,5.7,5.6V140.7z M257.7,137.8v-28.1h-9.7v28.1H257.7z"/>
	<path class="st18" d="M305.2,137.2c0,2.8-0.8,5-2.5,6.7c-1.7,1.6-4,2.4-6.8,2.4h-20.8V76.4h10.2v26.5c2.4-0.4,4.8-0.7,7.1-1.1
		c3-0.5,5.4-0.7,7.1-0.7c3.7,0,5.6,1.8,5.6,5.5V137.2z M295,134.4v-24.7l-9.6,0.2v27.9h6.3C293.9,137.8,295,136.7,295,134.4z"/>
	<path class="st18" d="M342.3,140.7c0,3.7-1.9,5.6-5.7,5.6h-18.3c-3.8,0-5.8-1.9-5.8-5.6v-34c0-3.7,1.9-5.6,5.8-5.6h18.3
		c3.8,0,5.7,1.9,5.7,5.6V140.7z M332.3,137.8v-28.1h-9.7v28.1H332.3z"/>
	<path class="st18" d="M399.5,146.3h-10.1v-36.6l-9.6,0.2v36.4h-10.2v-36.6l-9.6,0.2v36.4h-10.2v-45.1h10.2v1.7
		c2.4-0.4,4.8-0.8,7.1-1.2c2.9-0.4,5.3-0.7,7.2-0.7c2.4,0,3.9,0.7,4.6,2c2.5-0.4,5-0.8,7.5-1.2c3.3-0.5,5.8-0.8,7.6-0.8
		c3.7,0,5.6,1.8,5.6,5.5V146.3z"/>
</g>
</svg>
